<?xml version="1.0" encoding="UTF-8" standalone="no"?><!DOCTYPE svg PUBLIC "-//W3C//DTD SVG 1.1//EN" "http://www.w3.org/Graphics/SVG/1.1/DTD/svg11.dtd"><svg width="100%" height="100%" viewBox="0 0 557 561" version="1.1" xmlns="http://www.w3.org/2000/svg" xmlns:xlink="http://www.w3.org/1999/xlink" xml:space="preserve" xmlns:serif="http://www.serif.com/" style="fill-rule:evenodd;clip-rule:evenodd;stroke-linejoin:round;stroke-miterlimit:1.41421;"><circle cx="278.5" cy="278.5" r="278.5" style="fill:#d1c4e9;"/><path d="M306.313,282.244c34.489,-27.645 91.228,-48.155 124.604,-40.129c10.013,26.752 -14.463,72.232 -50.064,99.877c-34.489,27.644 -68.977,30.319 -103.466,22.294c-8.9,-25.861 -5.562,-53.506 28.926,-82.042Z" style="fill:#239b02;fill-rule:nonzero;"/><path d="M278.5,365.177c-10.013,-27.644 -6.675,-55.289 27.813,-82.933c34.489,-27.645 91.228,-48.155 124.604,-40.129" style="fill:#34b515;fill-rule:nonzero;"/><path d="M250.687,282.244c-34.489,-27.645 -91.228,-48.155 -124.604,-40.129c-10.013,26.752 14.463,72.232 50.064,99.877c34.489,27.644 68.977,30.319 103.466,22.294c8.9,-25.861 5.562,-53.506 -28.926,-82.042Z" style="fill:#239b02;fill-rule:nonzero;"/><path d="M278.5,365.177c10.013,-27.644 6.675,-55.289 -27.813,-82.933c-34.489,-27.645 -91.228,-48.155 -124.604,-40.129" style="fill:#34b515;fill-rule:nonzero;"/><rect x="267.375" y="230.522" width="22.251" height="160.516" style="fill:#683100;"/><path d="M123.858,382.121c-1.113,0 -1.113,11.593 -1.113,17.835c0,82.042 70.09,147.14 155.755,147.14c85.665,0 155.755,-65.098 155.755,-147.14c0,-7.134 -1.113,-18.727 -1.113,-18.727l-309.284,0l0,0.892Z" style="fill:#894400;fill-rule:nonzero;"/><path d="M278.5,548.88c85.665,0 155.755,-65.991 155.755,-147.141c0,-7.134 -1.113,-18.726 -2.225,-18.726l-186.906,0" style="fill:#683100;fill-rule:nonzero;"/><rect x="111.62" y="355.368" width="333.76" height="35.67" style="fill:#c67812;"/><rect x="178.372" y="524.802" width="200.256" height="35.67" style="fill:#683100;"/><g><path d="M338.643,93.521l-132.32,-73.865c-1.185,-0.796 -2.515,-0.171 -2.984,1.131l-64.961,180.06c-0.353,0.976 -0.054,2.188 0.923,2.541l132.972,74.1l66.37,-183.967Z" style="fill:#324a5e;fill-rule:nonzero;"/><path d="M336.177,100.359l-127.464,-71.009l-61.554,170.617l127.463,71.009l61.555,-170.617Z" style="fill:#ced5e0;fill-rule:nonzero;"/><path d="M338.643,93.521l149.002,27.629c1.42,0.144 2.044,1.474 1.575,2.776l-64.961,180.059c-0.353,0.977 -1.356,1.719 -2.333,1.367l-149.653,-27.864l66.37,-183.967Z" style="fill:#324a5e;fill-rule:nonzero;"/><path d="M336.177,100.359l143.439,26.726l-61.554,170.617l-143.44,-26.726l61.555,-170.617Z" style="fill:#acb3ba;fill-rule:nonzero;"/><path d="M469.556,113.152c-35.079,-25.167 -85.426,-30.452 -133.497,-12.468l-61.437,170.292c48.071,-17.984 98.536,-13.025 133.497,12.467l61.437,-170.291Z" style="fill:#ced5e0;fill-rule:nonzero;"/><path d="M466.164,81.753c-33.9,-15.174 -83.005,-8.603 -130.105,18.931l-61.437,170.292c47.1,-27.534 96.205,-34.105 130.105,-18.931l61.437,-170.292Z" style="fill:#e6e9ee;fill-rule:nonzero;"/><path d="M225.352,25.049c43.066,3.026 85.191,31.103 110.707,75.635l-61.437,170.292c-25.516,-44.533 -67.523,-72.935 -110.707,-75.635l61.437,-170.292Z" style="fill:#e6e9ee;fill-rule:nonzero;"/><path d="M248.009,3.048c35.779,9.965 69.378,46.374 88.05,97.636l-61.437,170.292c-18.672,-51.263 -52.271,-87.672 -88.05,-97.636l61.437,-170.292Z" style="fill:#fff;fill-rule:nonzero;"/></g></svg>