<?xml version="1.0" encoding="UTF-8" standalone="no"?><!DOCTYPE svg PUBLIC "-//W3C//DTD SVG 1.1//EN" "http://www.w3.org/Graphics/SVG/1.1/DTD/svg11.dtd"><svg width="100%" height="100%" viewBox="0 0 1292 624" version="1.1" xmlns="http://www.w3.org/2000/svg" xmlns:xlink="http://www.w3.org/1999/xlink" xml:space="preserve" xmlns:serif="http://www.serif.com/" style="fill-rule:evenodd;clip-rule:evenodd;stroke-linecap:round;stroke-linejoin:round;stroke-miterlimit:1.5;"><rect id="mde-logo-dark" x="0" y="0" width="1292" height="624" style="fill:none;"/><clipPath id="_clip1"><rect id="mde-logo-dark1" serif:id="mde-logo-dark" x="0" y="0" width="1292" height="624"/></clipPath><g clip-path="url(#_clip1)"><g><path d="M174.962,198.378l101.91,-50.264l231.404,114.132l-108.995,55.738l-109.397,-57.167c0.588,-1.074 0.911,-2.243 0.911,-3.464c0,-5.264 -5.996,-9.537 -13.381,-9.537c-7.386,0 -13.382,4.273 -13.382,9.537c0,5.263 5.996,9.536 13.382,9.536c3.759,0 7.159,-1.107 9.591,-2.889c23.601,12.51 82.015,42.996 107.641,56.354l-117.774,60.228l-231.403,-118.336l129.227,-63.737l1.035,31.872c0.011,0.336 -0.093,0.667 -0.295,0.937c-0.201,0.269 -0.489,0.463 -0.815,0.548l-31.413,8.195l31.185,9.025c0.324,0.093 0.606,0.294 0.8,0.569c0.194,0.276 0.289,0.609 0.27,0.945l-1.914,32.408l18.22,-26.87c0.189,-0.278 0.467,-0.485 0.789,-0.585c0.322,-0.099 0.668,-0.087 0.982,0.036l30.23,11.834l-19.924,-25.631c-0.207,-0.266 -0.317,-0.594 -0.312,-0.931c0.004,-0.337 0.123,-0.662 0.337,-0.923l20.597,-25.094l-30.534,11.029c-0.317,0.114 -0.663,0.117 -0.982,0.009c-0.319,-0.108 -0.592,-0.322 -0.773,-0.605l-17.217,-26.899Z" style="fill:#333;"/><path d="M275.905,451.609c-82.034,-24.129 -115.05,-72.545 -115.05,-72.545l0,-48.043l116.017,62.283l116.017,-62.283l0,48.043c0,0 -33.275,48.797 -116.017,72.828l-0.967,-0.283Z" style="fill:#333;"/><path d="M412.045,324.654l4.625,138.727l-14.127,0l4.474,-136.572l-12.371,-6.455l4.635,-2.37l12.764,6.67Z" style="fill:#333;"/><path d="M90.176,148.946l3.211,22.135c0.033,0.23 0.144,0.441 0.313,0.6c0.169,0.159 0.388,0.255 0.619,0.273l22.298,1.758l-20.06,9.894c-0.208,0.103 -0.375,0.273 -0.474,0.483c-0.098,0.211 -0.122,0.448 -0.068,0.674l5.218,21.749l-15.608,-16.02c-0.162,-0.166 -0.376,-0.273 -0.606,-0.301c-0.23,-0.029 -0.464,0.021 -0.661,0.142l-19.073,11.685l10.413,-19.796c0.108,-0.205 0.143,-0.441 0.099,-0.669c-0.044,-0.228 -0.164,-0.434 -0.34,-0.585l-17.006,-14.528l22.044,3.786c0.229,0.039 0.464,0 0.667,-0.113c0.204,-0.112 0.363,-0.289 0.451,-0.504l8.563,-20.663Z" style="fill:#333;fill-opacity:0.639216;"/><path d="M90.176,148.946l3.211,22.135c0.033,0.23 0.144,0.441 0.313,0.6c0.169,0.159 0.388,0.255 0.619,0.273l22.298,1.758l-20.06,9.894c-0.208,0.103 -0.375,0.273 -0.474,0.483c-0.098,0.211 -0.122,0.448 -0.068,0.674l5.218,21.749l-15.608,-16.02c-0.162,-0.166 -0.376,-0.273 -0.606,-0.301c-0.23,-0.029 -0.464,0.021 -0.661,0.142l-19.073,11.685l10.413,-19.796c0.108,-0.205 0.143,-0.441 0.099,-0.669c-0.044,-0.228 -0.164,-0.434 -0.34,-0.585l-17.006,-14.528l22.044,3.786c0.229,0.039 0.464,0 0.667,-0.113c0.204,-0.112 0.363,-0.289 0.451,-0.504l8.563,-20.663Z" style="fill:#333;fill-opacity:0.639216;"/><path d="M174.962,198.378l-0.266,0.131l-0.019,-0.576l0.285,0.445Z" style="fill:#333;fill-opacity:0.639216;"/><path d="M155.796,32.593l11.17,40.727c0.116,0.422 0.372,0.793 0.727,1.051c0.354,0.258 0.785,0.387 1.223,0.368l42.188,-1.898l-35.281,23.209c-0.366,0.241 -0.64,0.599 -0.775,1.015c-0.136,0.417 -0.126,0.867 0.028,1.277l14.842,39.537l-32.976,-26.382c-0.342,-0.274 -0.767,-0.423 -1.205,-0.424c-0.438,0 -0.863,0.149 -1.206,0.422l-33.015,26.333l14.901,-39.515c0.155,-0.41 0.165,-0.86 0.03,-1.277c-0.135,-0.417 -0.408,-0.775 -0.773,-1.016l-35.247,-23.262l42.185,1.961c0.438,0.02 0.87,-0.109 1.224,-0.366c0.355,-0.257 0.612,-0.627 0.728,-1.05l11.232,-40.71Z" style="fill:#333;"/><g><path d="M635.359,303.329c0,7.7 -2.506,13.912 -7.517,18.637c-5.012,4.725 -11.787,7.088 -20.325,7.088c-1.071,0 -3.236,-0.05 -6.496,-0.15c-3.357,-0.1 -5.595,-0.15 -6.714,-0.15c-4.525,0 -8.928,0.1 -13.209,0.3c-0.389,0 -0.584,-0.35 -0.584,-1.05c0,-0.625 0.195,-0.963 0.584,-1.013c2.019,-0.25 3.564,-0.581 4.634,-0.993c1.07,-0.413 1.818,-0.969 2.244,-1.669c0.426,-0.7 0.639,-1.925 0.639,-3.675l0,-35.138c0,-1.725 -0.201,-2.943 -0.602,-3.656c-0.402,-0.712 -1.138,-1.281 -2.208,-1.706c-1.07,-0.425 -2.639,-0.763 -4.707,-1.013c-0.389,0 -0.584,-0.35 -0.584,-1.05c0,-0.7 0.195,-1.05 0.584,-1.05c2.846,0.2 7.249,0.3 13.209,0.3c1.119,0 3.357,-0.037 6.714,-0.112c3.26,-0.075 5.425,-0.113 6.496,-0.113c8.319,0 15.04,2.444 20.16,7.332c5.121,4.887 7.682,11.181 7.682,18.881Zm-8.028,0c0,-6.8 -1.892,-12.456 -5.674,-16.969c-3.783,-4.512 -8.521,-6.769 -14.213,-6.769l-0.219,0l-6.86,0.15c-2.871,0.1 -4.306,1.55 -4.306,4.35l0,37.988c0,2.85 1.435,4.275 4.306,4.275l6.86,0.225c5.668,0 10.436,-2.219 14.304,-6.656c3.868,-4.438 5.802,-9.969 5.802,-16.594Z" style="fill:#333;fill-rule:nonzero;"/><path d="M685.35,316.679c-1.97,4.325 -3.576,8.45 -4.817,12.375c-9.171,-0.3 -15.702,-0.45 -19.595,-0.45c-3.843,0 -10.363,0.15 -19.558,0.45c-0.39,0 -0.584,-0.35 -0.584,-1.05c0,-0.625 0.194,-0.963 0.584,-1.013c2.019,-0.25 3.563,-0.581 4.634,-0.993c1.07,-0.413 1.818,-0.969 2.244,-1.669c0.426,-0.7 0.638,-1.925 0.638,-3.675l0,-35.288c0,-1.725 -0.2,-2.943 -0.602,-3.656c-0.401,-0.712 -1.137,-1.281 -2.207,-1.706c-1.071,-0.425 -2.64,-0.763 -4.707,-1.013c-0.39,0 -0.584,-0.35 -0.584,-1.05c0,-0.7 0.194,-1.05 0.584,-1.05c6.13,0.3 12.406,0.45 18.828,0.45c6.471,0 12.76,-0.15 18.866,-0.45c0.559,3.875 1.374,7.7 2.445,11.475c0,0.5 -0.426,0.75 -1.277,0.75c-0.414,0 -0.669,-0.175 -0.767,-0.525c-1.8,-5.9 -5.644,-8.85 -11.531,-8.85l-7.371,0c-2.822,0 -4.233,1.5 -4.233,4.5l0,16.688l9.196,0c2.433,0 4.081,-0.575 4.944,-1.725c0.864,-1.15 1.466,-3.188 1.807,-6.113c0,-0.4 0.34,-0.6 1.021,-0.6c0.682,0 1.022,0.2 1.022,0.6c0,1.25 -0.073,2.825 -0.219,4.725c-0.146,1.825 -0.219,3.313 -0.219,4.463c0,1.175 0.073,2.675 0.219,4.5c0.146,1.95 0.219,3.55 0.219,4.8c0,0.4 -0.34,0.6 -1.022,0.6c-0.681,0 -1.021,-0.2 -1.021,-0.6c-0.365,-3.05 -1.004,-5.188 -1.916,-6.413c-0.912,-1.225 -2.524,-1.837 -4.835,-1.837l-9.196,0l0,18.45c0,2.95 1.411,4.425 4.233,4.425l7.955,0c2.895,0 5.766,-0.969 8.612,-2.906c2.846,-1.938 4.938,-4.357 6.276,-7.257c0.098,-0.225 0.304,-0.337 0.621,-0.337c0.34,0 0.644,0.094 0.912,0.281c0.267,0.188 0.401,0.419 0.401,0.694Z" style="fill:#333;fill-rule:nonzero;"/><path d="M729.649,292.191c0,4.4 -1.648,8.094 -4.944,11.082c-3.296,2.987 -7.377,4.481 -12.243,4.481c-2.919,0 -5.789,-0.125 -8.611,-0.375l0,13.275c0,1.75 0.213,2.975 0.638,3.675c0.426,0.7 1.168,1.256 2.226,1.669c1.058,0.412 2.609,0.743 4.653,0.993c0.389,0.05 0.584,0.388 0.584,1.013c0,0.7 -0.195,1.05 -0.584,1.05c-1.63,0 -3.564,-0.075 -5.802,-0.225c-2.141,-0.15 -3.953,-0.225 -5.437,-0.225c-1.484,0 -3.309,0.075 -5.474,0.225c-2.262,0.15 -4.208,0.225 -5.838,0.225c-0.389,0 -0.584,-0.35 -0.584,-1.05c0,-0.625 0.195,-0.963 0.584,-1.013c2.943,-0.35 4.944,-0.912 6.002,-1.687c1.059,-0.775 1.588,-2.325 1.588,-4.65l0,-35.288c0,-1.75 -0.213,-2.981 -0.639,-3.693c-0.426,-0.713 -1.174,-1.275 -2.244,-1.688c-1.07,-0.412 -2.639,-0.744 -4.707,-0.994c-0.389,0 -0.584,-0.35 -0.584,-1.05c0,-0.7 0.195,-1.05 0.584,-1.05c1.63,0 3.576,0.075 5.838,0.225c2.165,0.15 3.99,0.225 5.474,0.225c1.484,0 3.296,-0.075 5.437,-0.225c2.238,-0.15 4.172,-0.225 5.802,-0.225c5.984,0 10.527,1.3 13.629,3.9c3.101,2.6 4.652,6.4 4.652,11.4Zm-8.101,0c0,-4 -0.954,-7.125 -2.864,-9.375c-1.91,-2.25 -4.446,-3.375 -7.608,-3.375c-1.898,0 -3.363,0.15 -4.397,0.45c-1.034,0.3 -1.764,0.788 -2.19,1.463c-0.425,0.675 -0.638,2.012 -0.638,4.012l0,17.213c0,1.075 0.328,1.794 0.985,2.156c0.657,0.363 2.08,0.544 4.269,0.544c3.966,0 7.031,-1.163 9.196,-3.488c2.165,-2.325 3.247,-5.525 3.247,-9.6Z" style="fill:#333;fill-rule:nonzero;"/><path d="M785.333,328.004c0,0.7 -0.194,1.05 -0.584,1.05c-1.678,0 -3.576,-0.075 -5.692,-0.225c-1.825,-0.15 -3.381,-0.225 -4.671,-0.225c-1.484,0 -3.32,0.075 -5.51,0.225c-2.311,0.15 -4.281,0.225 -5.911,0.225c-0.389,0 -0.584,-0.35 -0.584,-1.05c0,-0.7 0.146,-1.05 0.438,-1.05c2.165,-0.1 3.722,-0.394 4.671,-0.881c0.948,-0.488 1.423,-1.244 1.423,-2.269c0,-0.65 -0.244,-1.688 -0.73,-3.113l-4.124,-12.562l-15.033,0l-4.16,11.625c-0.536,1.55 -0.803,2.75 -0.803,3.6c0,2.2 1.97,3.4 5.911,3.6c0.292,0 0.438,0.35 0.438,1.05c0,0.7 -0.194,1.05 -0.584,1.05c-1.459,0 -3.077,-0.075 -4.853,-0.225c-1.678,-0.15 -3.175,-0.225 -4.488,-0.225c-1.046,0 -2.36,0.075 -3.941,0.225c-1.654,0.15 -3.065,0.225 -4.233,0.225c-0.365,0 -0.547,-0.313 -0.547,-0.938c0,-0.7 0.279,-1.075 0.839,-1.125c2.019,-0.2 3.619,-0.775 4.798,-1.725c1.18,-0.95 2.403,-2.887 3.668,-5.812l17.077,-43.088c0.146,-0.4 0.487,-0.6 1.022,-0.6c0.584,0 0.949,0.188 1.095,0.563l15.07,43.125c0.851,2.425 2.001,4.212 3.448,5.362c1.448,1.15 3.388,1.875 5.82,2.175c0.487,0.05 0.73,0.388 0.73,1.013Zm-22.076,-22.275l-6.423,-19.163l-6.933,19.163l13.356,0Z" style="fill:#333;fill-rule:nonzero;"/><path d="M838.317,328.004c0,0.7 -0.195,1.05 -0.584,1.05c-0.9,0 -2.372,-0.088 -4.415,-0.263c-1.484,-0.125 -2.469,-0.187 -2.956,-0.187c-0.705,0 -1.812,0.075 -3.32,0.225c-1.509,0.15 -2.616,0.225 -3.321,0.225l-11.057,-18.525c-1.557,-2.55 -2.815,-4.188 -3.776,-4.913c-0.961,-0.725 -2.889,-1.087 -5.784,-1.087l0,16.125c0,1.725 0.213,2.944 0.639,3.656c0.425,0.713 1.179,1.275 2.262,1.688c1.082,0.412 2.633,0.743 4.652,0.993c0.414,0.05 0.621,0.388 0.621,1.013c0,0.7 -0.195,1.05 -0.584,1.05c-1.63,0 -3.576,-0.075 -5.838,-0.225c-2.166,-0.15 -3.99,-0.225 -5.474,-0.225c-1.484,0 -3.296,0.075 -5.437,0.225c-2.238,0.15 -4.172,0.225 -5.802,0.225c-0.389,0 -0.584,-0.35 -0.584,-1.05c0,-0.625 0.195,-0.963 0.584,-1.013c2.019,-0.25 3.564,-0.581 4.634,-0.993c1.071,-0.413 1.819,-0.969 2.244,-1.669c0.426,-0.7 0.639,-1.925 0.639,-3.675l0,-35.288c0,-1.725 -0.201,-2.943 -0.602,-3.656c-0.401,-0.712 -1.137,-1.281 -2.208,-1.706c-1.07,-0.425 -2.639,-0.763 -4.707,-1.013c-0.389,0 -0.584,-0.35 -0.584,-1.05c0,-0.7 0.195,-1.05 0.584,-1.05c1.63,0 3.564,0.075 5.802,0.225c2.141,0.15 3.953,0.225 5.437,0.225c1.484,0 3.308,-0.075 5.474,-0.225c2.262,-0.15 4.208,-0.225 5.838,-0.225c5.425,0 9.621,1.182 12.589,3.544c2.968,2.363 4.452,5.681 4.452,9.956c0,2.7 -1.028,5.207 -3.084,7.519c-2.055,2.313 -4.835,4.094 -8.338,5.344l11.787,18.45c0.973,1.65 2.226,2.869 3.758,3.656c1.533,0.788 3.515,1.331 5.948,1.631c0.341,0.05 0.511,0.388 0.511,1.013Zm-18.61,-37.613c0,-7.3 -3.102,-10.95 -9.305,-10.95c-2.043,0 -3.594,0.169 -4.652,0.507c-1.059,0.337 -1.764,0.868 -2.117,1.593c-0.353,0.725 -0.529,2 -0.529,3.825l0,16.688c1.411,0.2 3.187,0.3 5.328,0.3c3.916,0 6.775,-0.95 8.575,-2.85c1.8,-1.9 2.7,-4.938 2.7,-9.113Z" style="fill:#333;fill-rule:nonzero;"/><path d="M890.717,289.229c0,0.475 -0.438,0.712 -1.314,0.712c-0.389,0 -0.632,-0.175 -0.73,-0.525c-1.046,-3.525 -2.542,-6.018 -4.488,-7.481c-1.946,-1.462 -4.829,-2.194 -8.648,-2.194l-3.43,0c-1.192,0 -2.007,0.2 -2.445,0.6c-0.438,0.4 -0.657,1.15 -0.657,2.25l0,38.063c0,1.725 0.213,2.944 0.639,3.656c0.426,0.713 1.18,1.275 2.262,1.688c1.083,0.412 2.634,0.743 4.653,0.993c0.389,0.05 0.584,0.388 0.584,1.013c0,0.7 -0.195,1.05 -0.584,1.05c-1.63,0 -3.576,-0.075 -5.839,-0.225c-2.14,-0.15 -3.929,-0.225 -5.364,-0.225c-1.484,0 -3.308,0.075 -5.473,0.225c-2.263,0.15 -4.209,0.225 -5.839,0.225c-0.389,0 -0.584,-0.35 -0.584,-1.05c0,-0.625 0.195,-0.963 0.584,-1.013c2.944,-0.35 4.945,-0.912 6.003,-1.687c1.058,-0.775 1.587,-2.325 1.587,-4.65l0,-38.063c0,-1.1 -0.219,-1.85 -0.657,-2.25c-0.437,-0.4 -1.265,-0.6 -2.481,-0.6l-2.846,0c-3.43,0 -6.544,0.894 -9.342,2.682c-2.797,1.787 -4.622,4.106 -5.473,6.956c-0.122,0.375 -0.389,0.562 -0.803,0.562c-0.827,0 -1.241,-0.275 -1.241,-0.825c1.363,-3.775 2.652,-8.05 3.868,-12.825c3.309,0.7 10.874,1.05 22.697,1.05c12.139,0 19.863,-0.35 23.171,-1.05c0.341,3.25 1.071,7.563 2.19,12.938Z" style="fill:#333;fill-rule:nonzero;"/><path d="M960.194,328.004c0,0.7 -0.194,1.05 -0.584,1.05c-1.63,0 -3.612,-0.075 -5.948,-0.225c-2.238,-0.15 -4.099,-0.225 -5.583,-0.225c-1.483,0 -3.296,0.075 -5.437,0.225c-2.238,0.15 -4.172,0.225 -5.802,0.225c-0.437,0 -0.656,-0.35 -0.656,-1.05c0,-0.625 0.194,-0.963 0.583,-1.013c2.847,-0.35 4.787,-0.887 5.821,-1.612c1.034,-0.725 1.551,-2.1 1.551,-4.125l0,-0.6l-1.533,-36.338l-17.588,45.338c-0.146,0.4 -0.487,0.6 -1.022,0.6c-0.56,0 -0.888,-0.2 -0.985,-0.6l-16.567,-43.538l-2.627,34.538c-0.049,0.425 -0.073,0.8 -0.073,1.125c0,1.675 0.559,2.875 1.678,3.6c1.119,0.725 3.114,1.25 5.985,1.575c0.34,0.05 0.511,0.4 0.511,1.05c0,0.7 -0.219,1.05 -0.657,1.05c-1.265,0 -2.992,-0.075 -5.182,-0.225c-2.043,-0.15 -3.624,-0.225 -4.743,-0.225c-1.217,0 -2.871,0.075 -4.963,0.225c-2.019,0.15 -3.576,0.225 -4.671,0.225c-0.34,0 -0.511,-0.35 -0.511,-1.05c0,-0.625 0.219,-0.963 0.657,-1.013c3.065,-0.375 5.188,-0.962 6.368,-1.762c1.179,-0.8 1.855,-2.325 2.025,-4.575l3.795,-35.288c0.024,-0.45 0.036,-0.85 0.036,-1.2c0,-1.625 -0.559,-2.8 -1.678,-3.525c-1.119,-0.725 -3.151,-1.275 -6.094,-1.65c-0.341,0 -0.511,-0.35 -0.511,-1.05c0,-0.25 0.073,-0.487 0.219,-0.712c0.146,-0.225 0.292,-0.338 0.438,-0.338c0.9,0 2.177,0.075 3.831,0.225c1.411,0.15 2.445,0.225 3.102,0.225c0.851,0 2.068,-0.075 3.649,-0.225c1.63,-0.15 2.895,-0.225 3.795,-0.225l15.654,41.738l16.202,-41.738c0.973,0 2.25,0.075 3.831,0.225c1.436,0.15 2.567,0.225 3.394,0.225c1.022,0 2.25,-0.075 3.685,-0.225c1.484,-0.15 2.762,-0.225 3.832,-0.225c0.438,0 0.657,0.35 0.657,1.05c0,0.7 -0.195,1.05 -0.584,1.05c-2.846,0.35 -4.786,0.888 -5.82,1.613c-1.034,0.725 -1.551,2.1 -1.551,4.125l0,0.637l1.678,35.288c0.073,1.75 0.335,2.975 0.785,3.675c0.45,0.7 1.222,1.256 2.317,1.669c1.095,0.412 2.664,0.743 4.707,0.993c0.39,0.05 0.584,0.388 0.584,1.013Z" style="fill:#333;fill-rule:nonzero;"/><path d="M1008.36,316.679c-1.97,4.325 -3.576,8.45 -4.816,12.375c-9.172,-0.3 -15.703,-0.45 -19.596,-0.45c-3.843,0 -10.363,0.15 -19.558,0.45c-0.39,0 -0.584,-0.35 -0.584,-1.05c0,-0.625 0.194,-0.963 0.584,-1.013c2.019,-0.25 3.563,-0.581 4.634,-0.993c1.07,-0.413 1.818,-0.969 2.244,-1.669c0.426,-0.7 0.639,-1.925 0.639,-3.675l0,-35.288c0,-1.725 -0.201,-2.943 -0.603,-3.656c-0.401,-0.712 -1.137,-1.281 -2.207,-1.706c-1.071,-0.425 -2.64,-0.763 -4.707,-1.013c-0.39,0 -0.584,-0.35 -0.584,-1.05c0,-0.7 0.194,-1.05 0.584,-1.05c6.13,0.3 12.406,0.45 18.828,0.45c6.471,0 12.76,-0.15 18.866,-0.45c0.559,3.875 1.374,7.7 2.445,11.475c0,0.5 -0.426,0.75 -1.277,0.75c-0.414,0 -0.669,-0.175 -0.767,-0.525c-1.8,-5.9 -5.644,-8.85 -11.531,-8.85l-7.371,0c-2.822,0 -4.232,1.5 -4.232,4.5l0,16.688l9.195,0c2.433,0 4.081,-0.575 4.944,-1.725c0.864,-1.15 1.466,-3.188 1.807,-6.113c0,-0.4 0.34,-0.6 1.021,-0.6c0.682,0 1.022,0.2 1.022,0.6c0,1.25 -0.073,2.825 -0.219,4.725c-0.146,1.825 -0.219,3.313 -0.219,4.463c0,1.175 0.073,2.675 0.219,4.5c0.146,1.95 0.219,3.55 0.219,4.8c0,0.4 -0.34,0.6 -1.022,0.6c-0.681,0 -1.021,-0.2 -1.021,-0.6c-0.365,-3.05 -1.004,-5.188 -1.916,-6.413c-0.912,-1.225 -2.524,-1.837 -4.835,-1.837l-9.195,0l0,18.45c0,2.95 1.41,4.425 4.232,4.425l7.955,0c2.895,0 5.766,-0.969 8.612,-2.906c2.846,-1.938 4.938,-4.357 6.276,-7.257c0.098,-0.225 0.304,-0.337 0.621,-0.337c0.34,0 0.644,0.094 0.912,0.281c0.267,0.188 0.401,0.419 0.401,0.694Z" style="fill:#333;fill-rule:nonzero;"/><path d="M1071.78,278.016c0,0.625 -0.194,0.963 -0.584,1.013c-3.041,0.35 -5.127,0.925 -6.258,1.725c-1.131,0.8 -1.721,2.337 -1.77,4.612l-0.802,44.138c0,0.5 -0.292,0.75 -0.876,0.75c-0.292,0 -0.681,-0.2 -1.168,-0.6l-37.621,-43.688l-0.511,34.688c-0.024,0.2 -0.036,0.387 -0.036,0.562c0,1.9 0.583,3.244 1.751,4.032c1.168,0.787 3.272,1.368 6.313,1.743c0.389,0.05 0.584,0.388 0.584,1.013c0,0.7 -0.195,1.05 -0.584,1.05c-1.265,0 -3.005,-0.075 -5.218,-0.225c-2.068,-0.15 -3.661,-0.225 -4.78,-0.225c-1.217,0 -2.859,0.075 -4.927,0.225c-1.994,0.15 -3.539,0.225 -4.634,0.225c-0.389,0 -0.584,-0.35 -0.584,-1.05c0,-0.625 0.219,-0.963 0.657,-1.013c3.017,-0.375 5.084,-0.956 6.203,-1.743c1.119,-0.788 1.715,-2.319 1.788,-4.594l1.278,-35.288l0,-0.337c0,-2.025 -0.572,-3.438 -1.715,-4.238c-1.144,-0.8 -3.272,-1.4 -6.386,-1.8c-0.341,0 -0.511,-0.35 -0.511,-1.05c0,-0.7 0.195,-1.05 0.584,-1.05c0.851,0 2.043,0.075 3.576,0.225c1.362,0.15 2.384,0.225 3.065,0.225c0.851,0 1.873,-0.075 3.065,-0.225c1.216,-0.15 2.263,-0.225 3.138,-0.225l35.14,40.388l0,-31.913c0,-2.125 -0.59,-3.618 -1.769,-4.481c-1.18,-0.862 -3.364,-1.481 -6.55,-1.856c-0.39,-0.05 -0.584,-0.388 -0.584,-1.013c0,-0.7 0.194,-1.05 0.584,-1.05c1.313,0 3.065,0.063 5.254,0.188c2.044,0.125 3.625,0.187 4.744,0.187c1.216,0 2.858,-0.062 4.926,-0.187c1.995,-0.125 3.54,-0.188 4.634,-0.188c0.39,0 0.584,0.35 0.584,1.05Z" style="fill:#333;fill-rule:nonzero;"/><path d="M1123.82,289.229c0,0.475 -0.438,0.712 -1.314,0.712c-0.389,0 -0.632,-0.175 -0.729,-0.525c-1.046,-3.525 -2.542,-6.018 -4.489,-7.481c-1.946,-1.462 -4.828,-2.194 -8.648,-2.194l-3.43,0c-1.192,0 -2.007,0.2 -2.445,0.6c-0.438,0.4 -0.657,1.15 -0.657,2.25l0,38.063c0,1.725 0.213,2.944 0.639,3.656c0.426,0.713 1.18,1.275 2.262,1.688c1.083,0.412 2.634,0.743 4.653,0.993c0.389,0.05 0.584,0.388 0.584,1.013c0,0.7 -0.195,1.05 -0.584,1.05c-1.63,0 -3.576,-0.075 -5.838,-0.225c-2.141,-0.15 -3.929,-0.225 -5.365,-0.225c-1.483,0 -3.308,0.075 -5.473,0.225c-2.262,0.15 -4.209,0.225 -5.838,0.225c-0.39,0 -0.584,-0.35 -0.584,-1.05c0,-0.625 0.194,-0.963 0.584,-1.013c2.943,-0.35 4.944,-0.912 6.002,-1.687c1.058,-0.775 1.587,-2.325 1.587,-4.65l0,-38.063c0,-1.1 -0.218,-1.85 -0.656,-2.25c-0.438,-0.4 -1.265,-0.6 -2.482,-0.6l-2.846,0c-3.43,0 -6.544,0.894 -9.341,2.682c-2.798,1.787 -4.623,4.106 -5.474,6.956c-0.122,0.375 -0.389,0.562 -0.803,0.562c-0.827,0 -1.24,-0.275 -1.24,-0.825c1.362,-3.775 2.651,-8.05 3.868,-12.825c3.308,0.7 10.874,1.05 22.696,1.05c12.14,0 19.863,-0.35 23.172,-1.05c0.34,3.25 1.07,7.563 2.189,12.938Z" style="fill:#333;fill-rule:nonzero;"/><path d="M1199.13,303.254c0,7.925 -2.481,14.406 -7.444,19.444c-4.963,5.037 -11.446,7.556 -19.449,7.556c-8.004,0 -14.481,-2.519 -19.431,-7.556c-4.951,-5.038 -7.426,-11.519 -7.426,-19.444c0,-7.95 2.493,-14.519 7.48,-19.706c4.987,-5.188 11.446,-7.782 19.377,-7.782c7.954,0 14.425,2.594 19.412,7.782c4.987,5.187 7.481,11.756 7.481,19.706Zm-8.028,0c0,-7.375 -1.733,-13.4 -5.2,-18.075c-3.466,-4.675 -8.022,-7.013 -13.665,-7.013c-5.669,0 -10.224,2.338 -13.666,7.013c-3.442,4.675 -5.163,10.7 -5.163,18.075c0,7.325 1.709,13.256 5.127,17.794c3.417,4.537 7.985,6.806 13.702,6.806c5.692,0 10.259,-2.269 13.702,-6.806c3.442,-4.538 5.163,-10.469 5.163,-17.794Z" style="fill:#333;fill-rule:nonzero;"/><path d="M1245,288.366c0,0.5 -0.426,0.75 -1.277,0.75c-0.414,0 -0.669,-0.175 -0.766,-0.525c-0.852,-2.9 -2.311,-5.1 -4.379,-6.6c-2.068,-1.5 -4.598,-2.25 -7.59,-2.25l-6.568,0c-2.871,0 -4.306,1.5 -4.306,4.5l0,16.688l8.319,0c2.433,0 4.081,-0.575 4.945,-1.725c0.863,-1.15 1.478,-3.188 1.843,-6.113c0,-0.4 0.328,-0.6 0.985,-0.6c0.681,0 1.022,0.2 1.022,0.6c0,1.25 -0.073,2.825 -0.219,4.725c-0.146,1.825 -0.219,3.313 -0.219,4.463c0,1.175 0.073,2.675 0.219,4.5c0.146,1.95 0.219,3.55 0.219,4.8c0,0.4 -0.341,0.6 -1.022,0.6c-0.657,0 -0.985,-0.2 -0.985,-0.6c-0.39,-3.05 -1.04,-5.188 -1.953,-6.413c-0.912,-1.225 -2.523,-1.837 -4.835,-1.837l-8.319,0l0,17.325c0,1.725 0.213,2.944 0.638,3.656c0.426,0.713 1.18,1.275 2.263,1.688c1.082,0.412 2.633,0.743 4.652,0.993c0.414,0.05 0.62,0.388 0.62,1.013c0,0.7 -0.194,1.05 -0.583,1.05c-1.63,0 -3.576,-0.075 -5.839,-0.225c-2.165,-0.15 -3.989,-0.225 -5.473,-0.225c-1.484,0 -3.297,0.075 -5.437,0.225c-2.238,0.15 -4.172,0.225 -5.802,0.225c-0.389,0 -0.584,-0.35 -0.584,-1.05c0,-0.625 0.195,-0.963 0.584,-1.013c2.019,-0.25 3.564,-0.581 4.634,-0.993c1.07,-0.413 1.818,-0.969 2.244,-1.669c0.426,-0.7 0.639,-1.925 0.639,-3.675l0,-35.288c0,-1.725 -0.201,-2.943 -0.602,-3.656c-0.402,-0.712 -1.138,-1.281 -2.208,-1.706c-1.07,-0.425 -2.639,-0.763 -4.707,-1.013c-0.389,0 -0.584,-0.35 -0.584,-1.05c0,-0.7 0.195,-1.05 0.584,-1.05c6.13,0.3 12.406,0.45 18.829,0.45c6.081,0 12.175,-0.15 18.281,-0.45c0.803,4.325 1.715,8.15 2.737,11.475Z" style="fill:#333;fill-rule:nonzero;"/></g><g><path d="M644.162,422.048c-2.746,5.767 -4.983,11.267 -6.712,16.5c-12.779,-0.4 -21.88,-0.6 -27.303,-0.6c-5.356,0 -14.44,0.2 -27.253,0.6c-0.542,0 -0.813,-0.466 -0.813,-1.4c0,-0.833 0.271,-1.283 0.813,-1.35c2.814,-0.333 4.966,-0.775 6.458,-1.325c1.491,-0.55 2.533,-1.291 3.126,-2.225c0.594,-0.933 0.89,-2.566 0.89,-4.9l0,-47.05c0,-2.3 -0.279,-3.925 -0.839,-4.875c-0.559,-0.95 -1.584,-1.708 -3.076,-2.275c-1.491,-0.566 -3.678,-1.016 -6.559,-1.35c-0.542,0 -0.813,-0.466 -0.813,-1.4c0,-0.933 0.271,-1.4 0.813,-1.4c8.542,0.4 17.287,0.6 26.236,0.6c9.016,0 17.779,-0.2 26.287,-0.6c0.779,5.167 1.915,10.267 3.406,15.3c0,0.667 -0.593,1 -1.779,1c-0.577,0 -0.933,-0.233 -1.068,-0.7c-2.508,-7.866 -7.864,-11.8 -16.067,-11.8l-10.271,0c-3.932,0 -5.897,2 -5.897,6l0,22.25l12.812,0c3.39,0 5.686,-0.766 6.89,-2.3c1.203,-1.533 2.042,-4.25 2.517,-8.15c0,-0.533 0.474,-0.8 1.423,-0.8c0.949,0 1.424,0.267 1.424,0.8c0,1.667 -0.102,3.767 -0.305,6.3c-0.204,2.434 -0.305,4.417 -0.305,5.95c0,1.567 0.101,3.567 0.305,6c0.203,2.6 0.305,4.734 0.305,6.4c0,0.534 -0.475,0.8 -1.424,0.8c-0.949,0 -1.423,-0.266 -1.423,-0.8c-0.509,-4.066 -1.399,-6.916 -2.67,-8.55c-1.271,-1.633 -3.517,-2.45 -6.737,-2.45l-12.812,0l0,24.6c0,3.934 1.965,5.9 5.897,5.9l11.085,0c4.033,0 8.033,-1.291 11.999,-3.875c3.966,-2.583 6.881,-5.808 8.745,-9.675c0.136,-0.3 0.424,-0.45 0.864,-0.45c0.475,0 0.899,0.125 1.272,0.375c0.372,0.25 0.559,0.559 0.559,0.925Z" style="fill:#333;fill-rule:nonzero;"/><path d="M724.699,404.248c0,10.267 -3.491,18.55 -10.474,24.85c-6.982,6.3 -16.422,9.45 -28.32,9.45c-1.491,0 -4.508,-0.066 -9.05,-0.2c-4.678,-0.133 -7.796,-0.2 -9.356,-0.2c-6.304,0 -12.44,0.134 -18.405,0.4c-0.543,0 -0.814,-0.466 -0.814,-1.4c0,-0.833 0.271,-1.283 0.814,-1.35c2.813,-0.333 4.966,-0.775 6.457,-1.325c1.491,-0.55 2.534,-1.291 3.127,-2.225c0.593,-0.933 0.89,-2.566 0.89,-4.9l0,-46.85c0,-2.3 -0.28,-3.925 -0.839,-4.875c-0.56,-0.95 -1.585,-1.708 -3.076,-2.275c-1.492,-0.566 -3.678,-1.016 -6.559,-1.35c-0.543,0 -0.814,-0.466 -0.814,-1.4c0,-0.933 0.271,-1.4 0.814,-1.4c3.966,0.267 10.101,0.4 18.405,0.4c1.56,0 4.678,-0.05 9.356,-0.15c4.542,-0.1 7.559,-0.15 9.05,-0.15c11.593,0 20.957,3.259 28.092,9.775c7.135,6.517 10.702,14.909 10.702,25.175Zm-11.185,0c0,-9.066 -2.636,-16.608 -7.907,-22.625c-5.271,-6.016 -11.872,-9.025 -19.804,-9.025l-0.305,0l-9.558,0.2c-4,0.134 -6,2.067 -6,5.8l0,50.65c0,3.8 2,5.7 6,5.7l9.558,0.3c7.898,0 14.542,-2.958 19.931,-8.875c5.39,-5.916 8.085,-13.291 8.085,-22.125Z" style="fill:#333;fill-rule:nonzero;"/><path d="M807.576,370.398c0,0.934 -0.271,1.4 -0.814,1.4c-4.271,0.534 -7.135,1.309 -8.592,2.325c-1.458,1.017 -2.187,3.075 -2.187,6.175l0,31.35c0,8.9 -2.186,15.875 -6.559,20.925c-4.372,5.05 -10.541,7.575 -18.507,7.575c-9.084,0 -16.168,-2.408 -21.253,-7.225c-5.084,-4.816 -7.627,-11.375 -7.627,-19.675l0,-32.95c0,-2.3 -0.279,-3.925 -0.839,-4.875c-0.559,-0.95 -1.584,-1.708 -3.076,-2.275c-1.491,-0.566 -3.677,-1.016 -6.559,-1.35c-0.542,0 -0.813,-0.466 -0.813,-1.4c0,-0.933 0.271,-1.4 0.813,-1.4c2.271,0 4.966,0.1 8.085,0.3c2.983,0.2 5.508,0.3 7.576,0.3c2.067,0 4.609,-0.1 7.626,-0.3c3.153,-0.2 5.864,-0.3 8.135,-0.3c0.543,0 0.814,0.467 0.814,1.4c0,0.934 -0.271,1.4 -0.814,1.4c-2.881,0.334 -5.067,0.775 -6.559,1.325c-1.491,0.55 -2.533,1.3 -3.127,2.25c-0.593,0.95 -0.889,2.592 -0.889,4.925l0,31.55c0,8.2 1.576,14.217 4.728,18.05c3.153,3.834 8.288,5.75 15.406,5.75c13.389,0 20.084,-8.333 20.084,-25l0,-30.35c0,-3.1 -0.755,-5.175 -2.263,-6.225c-1.508,-1.05 -4.347,-1.808 -8.516,-2.275c-0.543,0 -0.814,-0.466 -0.814,-1.4c0,-0.933 0.271,-1.4 0.814,-1.4c1.559,0 3.61,0.1 6.152,0.3c2.61,0.2 4.728,0.3 6.355,0.3c1.627,0 3.661,-0.1 6.102,-0.3c2.508,-0.2 4.61,-0.3 6.304,-0.3c0.543,0 0.814,0.467 0.814,1.4Z" style="fill:#333;fill-rule:nonzero;"/><path d="M880.69,420.048c-1.22,5.334 -2.406,11 -3.559,17c-1.932,0 -5.44,0.45 -10.525,1.35c-6.508,1.167 -11.321,1.75 -14.44,1.75c-7.728,0 -14.507,-1.5 -20.337,-4.5c-5.83,-3 -10.373,-7.291 -13.627,-12.875c-3.254,-5.583 -4.881,-11.791 -4.881,-18.625c0,-6.733 1.721,-12.941 5.161,-18.625c3.441,-5.683 8.178,-10.108 14.211,-13.275c6.034,-3.166 12.83,-4.75 20.389,-4.75c3.186,0 7.457,0.334 12.812,1c4.17,0.534 7.203,0.8 9.102,0.8c0.44,4.667 1.22,10.334 2.338,17c0,0.534 -0.542,0.8 -1.627,0.8c-0.677,0 -1.084,-0.266 -1.22,-0.8c-1.22,-4.533 -3.847,-8.266 -7.881,-11.2c-4.033,-2.933 -8.677,-4.4 -13.931,-4.4c-7.966,0 -14.652,3.234 -20.058,9.7c-5.407,6.467 -8.11,14.384 -8.11,23.75c0,9.1 2.678,16.842 8.034,23.225c5.355,6.384 11.897,9.575 19.625,9.575c12.101,0 20.677,-5.633 25.728,-16.9c0.237,-0.533 0.695,-0.8 1.373,-0.8c0.949,0 1.423,0.267 1.423,0.8Z" style="fill:#333;fill-rule:nonzero;"/><path d="M957.872,437.148c0,0.934 -0.271,1.4 -0.813,1.4c-2.339,0 -4.983,-0.1 -7.932,-0.3c-2.542,-0.2 -4.712,-0.3 -6.508,-0.3c-2.068,0 -4.627,0.1 -7.678,0.3c-3.22,0.2 -5.966,0.3 -8.237,0.3c-0.542,0 -0.813,-0.466 -0.813,-1.4c0,-0.933 0.203,-1.4 0.61,-1.4c3.017,-0.133 5.186,-0.525 6.508,-1.175c1.322,-0.65 1.983,-1.658 1.983,-3.025c0,-0.866 -0.339,-2.25 -1.017,-4.15l-5.745,-16.75l-20.948,0l-5.796,15.5c-0.746,2.067 -1.119,3.667 -1.119,4.8c0,2.934 2.746,4.534 8.237,4.8c0.407,0 0.61,0.467 0.61,1.4c0,0.934 -0.271,1.4 -0.814,1.4c-2.033,0 -4.287,-0.1 -6.762,-0.3c-2.339,-0.2 -4.423,-0.3 -6.254,-0.3c-1.457,0 -3.288,0.1 -5.491,0.3c-2.305,0.2 -4.271,0.3 -5.898,0.3c-0.508,0 -0.763,-0.416 -0.763,-1.25c0,-0.933 0.39,-1.433 1.17,-1.5c2.813,-0.266 5.042,-1.033 6.686,-2.3c1.644,-1.266 3.347,-3.85 5.11,-7.75l23.795,-57.45c0.203,-0.533 0.678,-0.8 1.424,-0.8c0.813,0 1.322,0.25 1.525,0.75l20.999,57.5c1.186,3.234 2.788,5.617 4.805,7.15c2.016,1.534 4.72,2.5 8.109,2.9c0.678,0.067 1.017,0.517 1.017,1.35Zm-30.761,-29.7l-8.948,-25.55l-9.661,25.55l18.609,0Z" style="fill:#333;fill-rule:nonzero;"/><path d="M1030.28,385.448c0,0.634 -0.611,0.95 -1.831,0.95c-0.542,0 -0.881,-0.233 -1.017,-0.7c-1.457,-4.7 -3.542,-8.025 -6.254,-9.975c-2.711,-1.95 -6.728,-2.925 -12.05,-2.925l-4.779,0c-1.661,0 -2.797,0.267 -3.407,0.8c-0.61,0.534 -0.915,1.534 -0.915,3l0,50.75c0,2.3 0.297,3.925 0.89,4.875c0.593,0.95 1.644,1.7 3.152,2.25c1.509,0.55 3.67,0.992 6.483,1.325c0.542,0.067 0.813,0.517 0.813,1.35c0,0.934 -0.271,1.4 -0.813,1.4c-2.271,0 -4.983,-0.1 -8.135,-0.3c-2.983,-0.2 -5.474,-0.3 -7.474,-0.3c-2.068,0 -4.61,0.1 -7.627,0.3c-3.152,0.2 -5.864,0.3 -8.135,0.3c-0.542,0 -0.814,-0.466 -0.814,-1.4c0,-0.833 0.272,-1.283 0.814,-1.35c4.101,-0.466 6.889,-1.216 8.364,-2.25c1.474,-1.033 2.212,-3.1 2.212,-6.2l0,-50.75c0,-1.466 -0.306,-2.466 -0.916,-3c-0.61,-0.533 -1.762,-0.8 -3.457,-0.8l-3.966,0c-4.779,0 -9.118,1.192 -13.016,3.575c-3.898,2.384 -6.44,5.475 -7.627,9.275c-0.169,0.5 -0.542,0.75 -1.118,0.75c-1.153,0 -1.729,-0.366 -1.729,-1.1c1.898,-5.033 3.695,-10.733 5.389,-17.1c4.61,0.934 15.152,1.4 31.626,1.4c16.914,0 27.676,-0.466 32.286,-1.4c0.474,4.334 1.491,10.084 3.051,17.25Z" style="fill:#333;fill-rule:nonzero;"/><path d="M1069.27,437.148c0,0.934 -0.271,1.4 -0.813,1.4c-2.271,0 -4.966,-0.1 -8.085,-0.3c-2.982,-0.2 -5.508,-0.3 -7.575,-0.3c-2.068,0 -4.593,0.1 -7.576,0.3c-3.153,0.2 -5.881,0.3 -8.186,0.3c-0.542,0 -0.814,-0.466 -0.814,-1.4c0,-0.833 0.272,-1.283 0.814,-1.35c4.101,-0.466 6.889,-1.216 8.364,-2.25c1.474,-1.033 2.212,-3.1 2.212,-6.2l0,-47.05c0,-2.333 -0.297,-3.975 -0.89,-4.925c-0.593,-0.95 -1.636,-1.7 -3.127,-2.25c-1.492,-0.55 -3.678,-0.991 -6.559,-1.325c-0.542,0 -0.814,-0.466 -0.814,-1.4c0,-0.933 0.272,-1.4 0.814,-1.4c2.305,0 5.033,0.1 8.186,0.3c2.983,0.2 5.508,0.3 7.576,0.3c2.067,0 4.593,-0.1 7.575,-0.3c3.119,-0.2 5.814,-0.3 8.085,-0.3c0.542,0 0.813,0.467 0.813,1.4c0,0.934 -0.271,1.4 -0.813,1.4c-2.848,0.334 -5.017,0.775 -6.508,1.325c-1.492,0.55 -2.526,1.292 -3.102,2.225c-0.576,0.934 -0.864,2.584 -0.864,4.95l0,47.05c0,2.3 0.288,3.925 0.864,4.875c0.576,0.95 1.602,1.7 3.076,2.25c1.475,0.55 3.636,0.992 6.483,1.325c0.576,0.067 0.864,0.517 0.864,1.35Z" style="fill:#333;fill-rule:nonzero;"/><path d="M1154.74,404.148c0,10.567 -3.458,19.209 -10.372,25.925c-6.915,6.717 -15.949,10.075 -27.101,10.075c-11.151,0 -20.176,-3.358 -27.074,-10.075c-6.898,-6.716 -10.347,-15.358 -10.347,-25.925c0,-10.6 3.474,-19.358 10.423,-26.275c6.949,-6.916 15.948,-10.375 26.998,-10.375c11.085,0 20.101,3.459 27.05,10.375c6.948,6.917 10.423,15.675 10.423,26.275Zm-11.186,0c0,-9.833 -2.415,-17.866 -7.245,-24.1c-4.831,-6.233 -11.178,-9.35 -19.042,-9.35c-7.897,0 -14.244,3.117 -19.041,9.35c-4.796,6.234 -7.194,14.267 -7.194,24.1c0,9.767 2.381,17.675 7.143,23.725c4.763,6.05 11.127,9.075 19.092,9.075c7.932,0 14.296,-3.025 19.093,-9.075c4.796,-6.05 7.194,-13.958 7.194,-23.725Z" style="fill:#333;fill-rule:nonzero;"/><path d="M1246.57,370.498c0,0.834 -0.271,1.284 -0.814,1.35c-4.237,0.467 -7.143,1.234 -8.719,2.3c-1.577,1.067 -2.399,3.117 -2.466,6.15l-1.119,58.85c0,0.667 -0.407,1 -1.22,1c-0.407,0 -0.949,-0.266 -1.627,-0.8l-52.421,-58.25l-0.712,46.25c-0.034,0.267 -0.051,0.517 -0.051,0.75c0,2.534 0.814,4.325 2.441,5.375c1.627,1.05 4.559,1.825 8.796,2.325c0.542,0.067 0.814,0.517 0.814,1.35c0,0.934 -0.272,1.4 -0.814,1.4c-1.763,0 -4.186,-0.1 -7.271,-0.3c-2.881,-0.2 -5.101,-0.3 -6.66,-0.3c-1.695,0 -3.983,0.1 -6.864,0.3c-2.78,0.2 -4.932,0.3 -6.458,0.3c-0.542,0 -0.813,-0.466 -0.813,-1.4c0,-0.833 0.305,-1.283 0.915,-1.35c4.203,-0.5 7.084,-1.275 8.644,-2.325c1.559,-1.05 2.389,-3.091 2.491,-6.125l1.78,-47.05l0,-0.45c0,-2.7 -0.797,-4.583 -2.39,-5.65c-1.593,-1.066 -4.559,-1.866 -8.898,-2.4c-0.474,0 -0.712,-0.466 -0.712,-1.4c0,-0.933 0.271,-1.4 0.814,-1.4c1.186,0 2.847,0.1 4.983,0.3c1.898,0.2 3.321,0.3 4.27,0.3c1.187,0 2.611,-0.1 4.271,-0.3c1.695,-0.2 3.153,-0.3 4.373,-0.3l48.963,53.85l0,-42.55c0,-2.833 -0.822,-4.825 -2.466,-5.975c-1.644,-1.15 -4.686,-1.975 -9.126,-2.475c-0.543,-0.066 -0.814,-0.516 -0.814,-1.35c0,-0.933 0.271,-1.4 0.814,-1.4c1.83,0 4.271,0.084 7.321,0.25c2.848,0.167 5.051,0.25 6.61,0.25c1.695,0 3.983,-0.083 6.864,-0.25c2.78,-0.166 4.932,-0.25 6.457,-0.25c0.543,0 0.814,0.467 0.814,1.4Z" style="fill:#333;fill-rule:nonzero;"/></g><path d="M542.416,161.137l0,278.653" style="fill:#333;stroke:#333;stroke-width:4.17px;"/><path d="M90.687,548.156c-1.973,4.565 -3.58,8.919 -4.822,13.062c-9.181,-0.317 -15.719,-0.475 -19.615,-0.475c-3.848,0 -10.374,0.158 -19.579,0.475c-0.39,0 -0.585,-0.369 -0.585,-1.108c0,-0.66 0.195,-1.016 0.585,-1.069c2.021,-0.264 3.567,-0.614 4.639,-1.049c1.071,-0.435 1.82,-1.023 2.246,-1.761c0.427,-0.739 0.64,-2.032 0.64,-3.88l0,-37.248c0,-1.82 -0.201,-3.107 -0.603,-3.859c-0.402,-0.752 -1.139,-1.352 -2.21,-1.801c-1.071,-0.449 -2.642,-0.805 -4.712,-1.069c-0.39,0 -0.585,-0.369 -0.585,-1.108c0,-0.739 0.195,-1.108 0.585,-1.108c6.137,0.316 12.419,0.475 18.848,0.475c6.478,0 12.773,-0.159 18.885,-0.475c0.56,4.09 1.376,8.127 2.447,12.112c0,0.528 -0.426,0.792 -1.278,0.792c-0.414,0 -0.67,-0.185 -0.767,-0.554c-1.802,-6.228 -5.65,-9.342 -11.543,-9.342l-7.379,0c-2.824,0 -4.237,1.583 -4.237,4.75l0,17.615l9.205,0c2.435,0 4.085,-0.607 4.95,-1.821c0.864,-1.214 1.467,-3.365 1.808,-6.452c0,-0.423 0.341,-0.634 1.023,-0.634c0.681,0 1.022,0.211 1.022,0.634c0,1.319 -0.073,2.982 -0.219,4.987c-0.146,1.926 -0.219,3.497 -0.219,4.711c0,1.24 0.073,2.823 0.219,4.75c0.146,2.058 0.219,3.747 0.219,5.066c0,0.422 -0.341,0.634 -1.022,0.634c-0.682,0 -1.023,-0.212 -1.023,-0.634c-0.365,-3.219 -1.005,-5.476 -1.918,-6.769c-0.913,-1.293 -2.526,-1.939 -4.84,-1.939l-9.205,0l0,19.475c0,3.114 1.413,4.671 4.237,4.671l7.963,0c2.898,0 5.772,-1.023 8.621,-3.068c2.849,-2.045 4.943,-4.598 6.283,-7.659c0.097,-0.238 0.304,-0.357 0.621,-0.357c0.341,0 0.645,0.099 0.913,0.297c0.268,0.198 0.402,0.442 0.402,0.733Z" style="fill:#333;fill-rule:nonzero;"/><path d="M131.159,560.11c0,0.739 -0.194,1.108 -0.584,1.108c-0.974,0 -2.167,-0.079 -3.58,-0.237c-1.558,-0.159 -2.934,-0.238 -4.127,-0.238c-1.218,0 -2.618,0.079 -4.201,0.238c-1.437,0.158 -2.642,0.237 -3.616,0.237c-0.39,0 -0.585,-0.369 -0.585,-1.108c0,-0.66 0.195,-1.016 0.585,-1.069c1.68,-0.211 2.782,-0.726 3.305,-1.544c0.524,-0.818 0.786,-2.533 0.786,-5.146l0,-13.22c0,-2.956 -0.536,-5.12 -1.607,-6.492c-1.072,-1.372 -2.728,-2.058 -4.968,-2.058c-1.413,0 -2.661,0.29 -3.744,0.87c-1.084,0.581 -2.247,1.61 -3.489,3.088l0,17.812c0,2.613 0.262,4.328 0.786,5.146c0.523,0.818 1.625,1.333 3.305,1.544c0.39,0.053 0.585,0.409 0.585,1.069c0,0.739 -0.195,1.108 -0.585,1.108c-0.998,0 -2.216,-0.079 -3.652,-0.237c-1.583,-0.159 -2.971,-0.238 -4.165,-0.238c-1.168,0 -2.532,0.079 -4.091,0.238c-1.436,0.158 -2.654,0.237 -3.652,0.237c-0.39,0 -0.585,-0.369 -0.585,-1.108c0,-0.66 0.195,-1.016 0.585,-1.069c2.094,-0.29 3.445,-0.838 4.054,-1.643c0.609,-0.805 0.913,-2.487 0.913,-5.047l0,-14.645c0,-2.112 -0.249,-3.497 -0.748,-4.157c-0.5,-0.659 -1.614,-1.095 -3.343,-1.306c-0.389,0 -0.584,-0.343 -0.584,-1.029c0,-0.633 0.195,-0.95 0.584,-0.95c2.411,-0.66 4.42,-1.405 6.027,-2.237c1.608,-0.831 2.618,-1.51 3.032,-2.038c0.244,-0.317 0.512,-0.475 0.804,-0.475c0.682,0 1.023,0.211 1.023,0.633l-0.293,4.988c3.507,-3.536 6.77,-5.304 9.79,-5.304c3.312,0 5.899,1.029 7.762,3.087c1.863,2.058 2.794,4.829 2.794,8.313l0,15.12c0,2.586 0.298,4.275 0.895,5.067c0.597,0.792 1.93,1.333 4,1.623c0.39,0.053 0.584,0.409 0.584,1.069Z" style="fill:#333;fill-rule:nonzero;"/><path d="M157.13,551.006c0,3.219 -1.168,5.924 -3.506,8.114c-2.338,2.19 -5.163,3.286 -8.475,3.286c-1.168,0 -2.971,-0.278 -5.406,-0.832c-1.826,-0.396 -3.068,-0.593 -3.726,-0.593c-0.194,-1.848 -0.645,-4.658 -1.351,-8.432c0,-0.396 0.353,-0.593 1.059,-0.593c0.585,0 0.938,0.211 1.06,0.633c0.56,1.953 1.668,3.655 3.324,5.106c1.656,1.451 3.36,2.177 5.113,2.177c1.827,0 3.245,-0.541 4.256,-1.623c1.011,-1.082 1.516,-2.599 1.516,-4.552c0,-1.24 -0.42,-2.335 -1.26,-3.285c-0.841,-0.95 -2.661,-2.125 -5.461,-3.523c-3.677,-1.821 -6.106,-3.536 -7.288,-5.146c-1.181,-1.61 -1.771,-3.536 -1.771,-5.779c0,-2.771 1.108,-5.153 3.324,-7.145c2.216,-1.992 4.834,-2.988 7.853,-2.988c1.267,0 3.044,0.237 5.333,0.712c1.267,0.264 2.095,0.396 2.484,0.396c0.073,3.114 0.232,5.766 0.475,7.956c0,0.396 -0.353,0.594 -1.059,0.594c-0.609,0 -0.95,-0.211 -1.023,-0.633c-0.268,-1.927 -0.938,-3.49 -2.009,-4.691c-1.071,-1.201 -2.35,-1.801 -3.835,-1.801c-3.799,0 -5.699,1.794 -5.699,5.383c0,1.214 0.451,2.336 1.352,3.365c0.901,1.029 2.861,2.362 5.881,3.998c3.604,1.952 5.978,3.641 7.123,5.066c1.144,1.425 1.716,3.035 1.716,4.83Z" style="fill:#333;fill-rule:nonzero;"/><path d="M196.836,558.606c0,0.554 -0.195,0.857 -0.584,0.91c-4.432,0.528 -7.464,1.451 -9.096,2.771c-0.341,0.29 -0.682,0.435 -1.023,0.435c-0.487,0 -0.73,-0.211 -0.73,-0.633l0.292,-4.988c-3.604,3.536 -6.867,5.305 -9.789,5.305c-3.337,0 -5.936,-1.023 -7.799,-3.068c-1.863,-2.045 -2.794,-4.823 -2.794,-8.332l0,-14.805c0,-2.348 -0.28,-3.905 -0.84,-4.67c-0.561,-0.766 -1.669,-1.148 -3.325,-1.148c-0.316,0 -0.669,0.013 -1.059,0.039c-0.365,0 -0.548,-0.343 -0.548,-1.029c0,-0.844 0.195,-1.267 0.585,-1.267c2.825,0 6.526,-0.593 11.104,-1.781c0.438,0 0.658,0.33 0.658,0.99l0,21.771c0,2.981 0.523,5.152 1.57,6.511c1.047,1.359 2.691,2.039 4.932,2.039c1.436,0 2.703,-0.291 3.798,-0.871c1.096,-0.581 2.265,-1.61 3.507,-3.088l0,-17.496c0,-2.322 -0.286,-3.872 -0.858,-4.651c-0.573,-0.778 -1.711,-1.167 -3.416,-1.167c-0.292,0 -0.633,0.013 -1.022,0.039c-0.366,0 -0.548,-0.343 -0.548,-1.029c0,-0.844 0.194,-1.267 0.584,-1.267c2.825,0 6.526,-0.593 11.104,-1.781c0.439,0 0.658,0.33 0.658,0.99l0,25.254c0,1.821 0.237,3.041 0.712,3.661c0.475,0.62 1.589,1.062 3.343,1.326c0.389,0 0.584,0.343 0.584,1.03Z" style="fill:#333;fill-rule:nonzero;"/><path d="M224.853,529.789c0,1.055 -0.299,1.953 -0.895,2.692c-0.597,0.738 -1.321,1.108 -2.174,1.108c-1.071,0 -2.13,-0.383 -3.178,-1.148c-0.828,-0.607 -1.546,-0.91 -2.155,-0.91c-1.583,0 -3.214,1.002 -4.894,3.008l0,17.812c0,2.296 0.365,3.899 1.095,4.81c0.731,0.91 2.29,1.537 4.676,1.88c0.39,0.053 0.584,0.409 0.584,1.069c0,0.739 -0.194,1.108 -0.584,1.108c-0.998,0 -2.411,-0.079 -4.237,-0.237c-2.021,-0.159 -3.629,-0.238 -4.822,-0.238c-1.217,0 -2.691,0.079 -4.42,0.238c-1.558,0.158 -2.837,0.237 -3.835,0.237c-0.39,0 -0.585,-0.369 -0.585,-1.108c0,-0.66 0.195,-1.016 0.585,-1.069c2.118,-0.29 3.476,-0.831 4.073,-1.623c0.596,-0.792 0.895,-2.481 0.895,-5.067l0,-14.645c0,-2.112 -0.25,-3.497 -0.749,-4.157c-0.499,-0.659 -1.613,-1.095 -3.342,-1.306c-0.39,0 -0.585,-0.343 -0.585,-1.029c0,-0.633 0.195,-0.95 0.585,-0.95c2.41,-0.66 4.401,-1.392 5.972,-2.197c1.571,-0.805 2.599,-1.498 3.086,-2.078c0.293,-0.317 0.585,-0.475 0.877,-0.475c0.682,0 1.023,0.211 1.023,0.633l-0.292,4.988c1.948,-1.953 3.622,-3.325 5.022,-4.117c1.4,-0.792 2.795,-1.187 4.183,-1.187c1.12,0 2.082,0.395 2.885,1.187c0.804,0.792 1.206,1.715 1.206,2.771Z" style="fill:#333;fill-rule:nonzero;"/><path d="M239.172,512.253c0,1.109 -0.372,2.072 -1.115,2.89c-0.742,0.818 -1.637,1.227 -2.684,1.227c-1.047,0 -1.942,-0.409 -2.685,-1.227c-0.743,-0.818 -1.114,-1.781 -1.114,-2.89c0,-1.161 0.365,-2.137 1.096,-2.929c0.73,-0.791 1.631,-1.187 2.703,-1.187c1.047,0 1.942,0.396 2.684,1.187c0.743,0.792 1.115,1.768 1.115,2.929Zm5.113,47.857c0,0.739 -0.194,1.108 -0.584,1.108c-0.998,0 -2.277,-0.079 -3.835,-0.237c-1.754,-0.159 -3.227,-0.238 -4.42,-0.238c-1.218,0 -2.679,0.079 -4.384,0.238c-1.534,0.158 -2.8,0.237 -3.799,0.237c-0.389,0 -0.584,-0.369 -0.584,-1.108c0,-0.66 0.195,-1.016 0.584,-1.069c2.07,-0.29 3.404,-0.831 4,-1.623c0.597,-0.792 0.895,-2.481 0.895,-5.067l0,-14.645c0,-2.112 -0.249,-3.497 -0.749,-4.157c-0.499,-0.659 -1.589,-1.095 -3.269,-1.306c-0.389,0 -0.584,-0.343 -0.584,-1.029c0,-0.633 0.195,-0.95 0.584,-0.95c2.557,-0.713 4.651,-1.471 6.283,-2.276c1.631,-0.805 2.654,-1.471 3.068,-1.999c0.244,-0.317 0.512,-0.475 0.804,-0.475c0.682,0 1.023,0.211 1.023,0.633c-0.39,5.911 -0.585,10.503 -0.585,13.775l0,12.429c0,2.586 0.298,4.275 0.895,5.067c0.597,0.792 1.954,1.333 4.073,1.623c0.39,0.053 0.584,0.409 0.584,1.069Z" style="fill:#333;fill-rule:nonzero;"/><path d="M284.941,560.11c0,0.739 -0.195,1.108 -0.585,1.108c-0.974,0 -2.167,-0.079 -3.58,-0.237c-1.558,-0.159 -2.934,-0.238 -4.127,-0.238c-1.218,0 -2.618,0.079 -4.201,0.238c-1.437,0.158 -2.642,0.237 -3.616,0.237c-0.39,0 -0.585,-0.369 -0.585,-1.108c0,-0.66 0.195,-1.016 0.585,-1.069c1.68,-0.211 2.782,-0.726 3.306,-1.544c0.523,-0.818 0.785,-2.533 0.785,-5.146l0,-13.22c0,-2.956 -0.536,-5.12 -1.607,-6.492c-1.072,-1.372 -2.728,-2.058 -4.968,-2.058c-1.412,0 -2.66,0.29 -3.744,0.87c-1.084,0.581 -2.246,1.61 -3.488,3.088l0,17.812c0,2.613 0.261,4.328 0.785,5.146c0.523,0.818 1.625,1.333 3.306,1.544c0.389,0.053 0.584,0.409 0.584,1.069c0,0.739 -0.195,1.108 -0.584,1.108c-0.999,0 -2.216,-0.079 -3.653,-0.237c-1.583,-0.159 -2.971,-0.238 -4.164,-0.238c-1.169,0 -2.533,0.079 -4.091,0.238c-1.437,0.158 -2.655,0.237 -3.653,0.237c-0.39,0 -0.585,-0.369 -0.585,-1.108c0,-0.66 0.195,-1.016 0.585,-1.069c2.094,-0.29 3.446,-0.838 4.054,-1.643c0.609,-0.805 0.914,-2.487 0.914,-5.047l0,-14.645c0,-2.112 -0.25,-3.497 -0.749,-4.157c-0.499,-0.659 -1.613,-1.095 -3.342,-1.306c-0.39,0 -0.585,-0.343 -0.585,-1.029c0,-0.633 0.195,-0.95 0.585,-0.95c2.41,-0.66 4.419,-1.405 6.027,-2.237c1.607,-0.831 2.617,-1.51 3.031,-2.038c0.244,-0.317 0.512,-0.475 0.804,-0.475c0.682,0 1.023,0.211 1.023,0.633l-0.292,4.988c3.506,-3.536 6.769,-5.304 9.789,-5.304c3.312,0 5.899,1.029 7.762,3.087c1.863,2.058 2.794,4.829 2.794,8.313l0,15.12c0,2.586 0.299,4.275 0.895,5.067c0.597,0.792 1.93,1.333 4,1.623c0.39,0.053 0.585,0.409 0.585,1.069Z" style="fill:#333;fill-rule:nonzero;"/><path d="M320.299,531.689c0,1.425 -0.316,2.137 -0.949,2.137l-4.639,-0.158c0.535,1.504 0.803,3.035 0.803,4.592c0,3.8 -1.284,6.966 -3.853,9.5c-2.57,2.533 -5.717,3.8 -9.443,3.8l-1.461,0c-1.948,0 -3.494,0.277 -4.639,0.831c-1.144,0.554 -1.717,1.201 -1.717,1.94c0,0.923 0.475,1.682 1.425,2.276c0.95,0.593 2.277,0.903 3.981,0.93l8.475,0.119c3.653,0.079 6.496,0.91 8.529,2.493c2.033,1.584 3.05,3.787 3.05,6.611c0,4.275 -2.143,8.009 -6.429,11.202c-4.286,3.193 -9.363,4.789 -15.232,4.789c-3.847,0 -7.086,-1.016 -9.716,-3.048c-2.63,-2.032 -3.945,-4.499 -3.945,-7.402c0,-1.952 0.834,-3.859 2.502,-5.719c1.668,-1.861 3.634,-3.226 5.899,-4.097c-1.51,-0.739 -2.739,-1.788 -3.689,-3.147c-0.95,-1.359 -1.425,-2.712 -1.425,-4.057c0,-0.95 0.895,-1.966 2.685,-3.048c1.79,-1.082 3.647,-1.808 5.571,-2.177c-2.095,-1.109 -3.726,-2.587 -4.895,-4.434c-1.169,-1.847 -1.753,-3.905 -1.753,-6.175c0,-3.641 1.296,-6.821 3.89,-9.539c2.593,-2.718 5.68,-4.077 9.259,-4.077c1.9,0 3.769,0.356 5.607,1.068c1.839,0.713 3.355,1.676 4.548,2.89l6.612,-0.238c0.633,0 0.949,0.713 0.949,2.138Zm-11.652,6.492c0,-3.378 -0.481,-5.859 -1.443,-7.442c-0.962,-1.583 -2.502,-2.375 -4.621,-2.375c-4.042,0 -6.063,3.694 -6.063,11.083c0,3.352 0.469,5.786 1.406,7.303c0.938,1.518 2.49,2.276 4.657,2.276c4.043,0 6.064,-3.615 6.064,-10.845Zm6.648,31.508c0,-1.821 -0.554,-3.127 -1.662,-3.919c-1.108,-0.792 -2.965,-1.214 -5.57,-1.267l-8.475,-0.197c-1.68,0 -3.166,-0.264 -4.456,-0.792c-2.971,1.768 -4.457,4.09 -4.457,6.967c0,2.612 1.011,4.73 3.032,6.353c2.021,1.623 4.591,2.434 7.708,2.434c3.75,0 7.001,-0.924 9.752,-2.771c2.752,-1.847 4.128,-4.116 4.128,-6.808Z" style="fill:#333;fill-rule:nonzero;"/><path d="M364.169,562.089c-1.364,0 -2.551,-0.363 -3.561,-1.089c-1.011,-0.725 -1.699,-1.708 -2.064,-2.949c-2.606,2.903 -6.015,4.355 -10.228,4.355c-2.192,0 -3.981,-0.733 -5.37,-2.197c-1.388,-1.465 -2.082,-3.292 -2.082,-5.483c0,-5.409 5.918,-9.79 17.753,-13.141l0.219,-6.175l0,-0.198c0,-1.9 -0.432,-3.411 -1.297,-4.533c-0.864,-1.121 -2.015,-1.682 -3.452,-1.682c-1.436,0 -2.654,0.376 -3.652,1.128c-0.999,0.752 -1.51,1.696 -1.535,2.831c-0.024,1.688 -0.432,3.008 -1.223,3.958c-0.792,0.95 -1.845,1.425 -3.16,1.425c-0.779,0 -1.412,-0.251 -1.899,-0.752c-0.487,-0.502 -0.731,-1.175 -0.731,-2.019c0,-2.032 1.705,-4.163 5.114,-6.393c3.409,-2.23 6.575,-3.344 9.497,-3.344c2.63,0 4.761,0.844 6.393,2.533c1.631,1.689 2.447,3.958 2.447,6.808l0,0.475l-0.511,17.892l0,0.277c0,2.771 0.827,4.156 2.483,4.156c0.804,0 1.742,-0.528 2.813,-1.583l0.256,-0.079c0.195,0 0.377,0.138 0.548,0.415c0.17,0.277 0.255,0.574 0.255,0.891c0,0.765 -0.736,1.702 -2.21,2.81c-1.473,1.109 -3.074,1.663 -4.803,1.663Zm-5.625,-17.813c-7.111,1.742 -10.666,4.618 -10.666,8.63c0,3.747 1.339,5.62 4.018,5.62c1.29,0 2.563,-0.349 3.817,-1.049c1.254,-0.699 2.1,-1.563 2.539,-2.592l0.292,-10.609Z" style="fill:#333;fill-rule:nonzero;"/><path d="M426.01,543.96c0,4.855 -1.583,9.143 -4.748,12.864c-3.166,3.721 -6.831,5.582 -10.995,5.582c-2.314,0 -4.554,-0.528 -6.721,-1.584c-1.486,-0.739 -2.801,-1.108 -3.945,-1.108c-1.827,0 -3.032,0.844 -3.616,2.533c-0.122,0.317 -0.427,0.475 -0.914,0.475c-0.633,0 -0.949,-0.211 -0.949,-0.633c0.194,-2.217 0.292,-4.882 0.292,-7.996l0,-38.594c0,-2.137 -0.25,-3.536 -0.749,-4.196c-0.499,-0.659 -1.589,-1.082 -3.269,-1.266c-0.39,0 -0.585,-0.317 -0.585,-0.95c0,-0.739 0.195,-1.109 0.585,-1.109c4.334,-1.213 7.415,-2.612 9.241,-4.195c0.366,-0.317 0.67,-0.475 0.914,-0.475c0.681,0 1.022,0.211 1.022,0.633c-0.389,5.753 -0.584,10.371 -0.584,13.854l0,11.836c2.289,-2.481 5.089,-3.721 8.401,-3.721c4.944,0 8.95,1.623 12.018,4.868c3.068,3.246 4.602,7.64 4.602,13.182Zm-7.342,0.316c0,-4.855 -0.889,-8.655 -2.666,-11.4c-1.778,-2.744 -4.274,-4.116 -7.488,-4.116c-1.729,0 -3.416,0.706 -5.06,2.117c-1.643,1.412 -2.465,2.817 -2.465,4.216l0,18.288c0,1.398 0.98,2.817 2.94,4.255c1.961,1.438 3.781,2.157 5.461,2.157c2.922,0 5.199,-1.412 6.831,-4.235c1.631,-2.824 2.447,-6.584 2.447,-11.282Z" style="fill:#333;fill-rule:nonzero;"/><path d="M456.146,529.789c0,1.055 -0.299,1.953 -0.895,2.692c-0.597,0.738 -1.321,1.108 -2.174,1.108c-1.071,0 -2.131,-0.383 -3.178,-1.148c-0.828,-0.607 -1.546,-0.91 -2.155,-0.91c-1.583,0 -3.214,1.002 -4.894,3.008l0,17.812c0,2.296 0.365,3.899 1.095,4.81c0.731,0.91 2.289,1.537 4.676,1.88c0.39,0.053 0.584,0.409 0.584,1.069c0,0.739 -0.194,1.108 -0.584,1.108c-0.999,0 -2.411,-0.079 -4.237,-0.237c-2.021,-0.159 -3.629,-0.238 -4.822,-0.238c-1.218,0 -2.691,0.079 -4.42,0.238c-1.558,0.158 -2.837,0.237 -3.835,0.237c-0.39,0 -0.585,-0.369 -0.585,-1.108c0,-0.66 0.195,-1.016 0.585,-1.069c2.118,-0.29 3.476,-0.831 4.073,-1.623c0.596,-0.792 0.895,-2.481 0.895,-5.067l0,-14.645c0,-2.112 -0.25,-3.497 -0.749,-4.157c-0.499,-0.659 -1.614,-1.095 -3.343,-1.306c-0.389,0 -0.584,-0.343 -0.584,-1.029c0,-0.633 0.195,-0.95 0.584,-0.95c2.411,-0.66 4.402,-1.392 5.973,-2.197c1.57,-0.805 2.599,-1.498 3.086,-2.078c0.293,-0.317 0.585,-0.475 0.877,-0.475c0.682,0 1.023,0.211 1.023,0.633l-0.292,4.988c1.948,-1.953 3.622,-3.325 5.022,-4.117c1.4,-0.792 2.794,-1.187 4.182,-1.187c1.121,0 2.083,0.395 2.886,1.187c0.804,0.792 1.206,1.715 1.206,2.771Z" style="fill:#333;fill-rule:nonzero;"/><path d="M470.464,512.253c0,1.109 -0.371,2.072 -1.114,2.89c-0.742,0.818 -1.637,1.227 -2.684,1.227c-1.048,0 -1.943,-0.409 -2.685,-1.227c-0.743,-0.818 -1.114,-1.781 -1.114,-2.89c0,-1.161 0.365,-2.137 1.096,-2.929c0.73,-0.791 1.631,-1.187 2.703,-1.187c1.047,0 1.942,0.396 2.684,1.187c0.743,0.792 1.114,1.768 1.114,2.929Zm5.114,47.857c0,0.739 -0.195,1.108 -0.584,1.108c-0.999,0 -2.277,-0.079 -3.836,-0.237c-1.753,-0.159 -3.226,-0.238 -4.419,-0.238c-1.218,0 -2.679,0.079 -4.384,0.238c-1.534,0.158 -2.8,0.237 -3.799,0.237c-0.389,0 -0.584,-0.369 -0.584,-1.108c0,-0.66 0.195,-1.016 0.584,-1.069c2.07,-0.29 3.404,-0.831 4,-1.623c0.597,-0.792 0.895,-2.481 0.895,-5.067l0,-14.645c0,-2.112 -0.249,-3.497 -0.749,-4.157c-0.499,-0.659 -1.589,-1.095 -3.269,-1.306c-0.39,0 -0.584,-0.343 -0.584,-1.029c0,-0.633 0.194,-0.95 0.584,-0.95c2.557,-0.713 4.651,-1.471 6.283,-2.276c1.631,-0.805 2.654,-1.471 3.068,-1.999c0.244,-0.317 0.512,-0.475 0.804,-0.475c0.682,0 1.023,0.211 1.023,0.633c-0.39,5.911 -0.585,10.503 -0.585,13.775l0,12.429c0,2.586 0.298,4.275 0.895,5.067c0.597,0.792 1.954,1.333 4.073,1.623c0.389,0.053 0.584,0.409 0.584,1.069Z" style="fill:#333;fill-rule:nonzero;"/><path d="M511.558,531.689c0,1.425 -0.317,2.137 -0.95,2.137l-4.639,-0.158c0.536,1.504 0.804,3.035 0.804,4.592c0,3.8 -1.285,6.966 -3.854,9.5c-2.569,2.533 -5.716,3.8 -9.442,3.8l-1.461,0c-1.948,0 -3.495,0.277 -4.639,0.831c-1.145,0.554 -1.717,1.201 -1.717,1.94c0,0.923 0.475,1.682 1.424,2.276c0.95,0.593 2.277,0.903 3.982,0.93l8.474,0.119c3.653,0.079 6.496,0.91 8.53,2.493c2.033,1.584 3.05,3.787 3.05,6.611c0,4.275 -2.143,8.009 -6.429,11.202c-4.286,3.193 -9.363,4.789 -15.232,4.789c-3.848,0 -7.087,-1.016 -9.717,-3.048c-2.63,-2.032 -3.945,-4.499 -3.945,-7.402c0,-1.952 0.835,-3.859 2.503,-5.719c1.668,-1.861 3.634,-3.226 5.899,-4.097c-1.51,-0.739 -2.74,-1.788 -3.689,-3.147c-0.95,-1.359 -1.425,-2.712 -1.425,-4.057c0,-0.95 0.895,-1.966 2.685,-3.048c1.79,-1.082 3.646,-1.808 5.57,-2.177c-2.094,-1.109 -3.726,-2.587 -4.895,-4.434c-1.168,-1.847 -1.753,-3.905 -1.753,-6.175c0,-3.641 1.297,-6.821 3.89,-9.539c2.594,-2.718 5.68,-4.077 9.26,-4.077c1.9,0 3.769,0.356 5.607,1.068c1.839,0.713 3.355,1.676 4.548,2.89l6.611,-0.238c0.633,0 0.95,0.713 0.95,2.138Zm-11.652,6.492c0,-3.378 -0.481,-5.859 -1.443,-7.442c-0.962,-1.583 -2.502,-2.375 -4.621,-2.375c-4.042,0 -6.063,3.694 -6.063,11.083c0,3.352 0.468,5.786 1.406,7.303c0.937,1.518 2.49,2.276 4.657,2.276c4.042,0 6.064,-3.615 6.064,-10.845Zm6.648,31.508c0,-1.821 -0.554,-3.127 -1.662,-3.919c-1.108,-0.792 -2.965,-1.214 -5.571,-1.267l-8.474,-0.197c-1.68,0 -3.166,-0.264 -4.457,-0.792c-2.97,1.768 -4.456,4.09 -4.456,6.967c0,2.612 1.011,4.73 3.032,6.353c2.021,1.623 4.59,2.434 7.707,2.434c3.75,0 7.001,-0.924 9.753,-2.771c2.752,-1.847 4.128,-4.116 4.128,-6.808Z" style="fill:#333;fill-rule:nonzero;"/><path d="M551.227,560.11c0,0.739 -0.195,1.108 -0.584,1.108c-0.975,0 -2.18,-0.079 -3.617,-0.237c-1.558,-0.159 -2.922,-0.238 -4.091,-0.238c-1.217,0 -2.618,0.079 -4.2,0.238c-1.437,0.158 -2.643,0.237 -3.617,0.237c-0.389,0 -0.584,-0.369 -0.584,-1.108c0,-0.66 0.195,-1.016 0.584,-1.069c1.681,-0.211 2.783,-0.726 3.306,-1.544c0.524,-0.818 0.785,-2.533 0.785,-5.146l0,-13.22c0,-5.7 -2.386,-8.55 -7.159,-8.55c-3.02,0 -5.625,1.319 -7.817,3.958l0,17.812c0,2.375 0.317,4.025 0.95,4.948c0.633,0.924 1.875,1.504 3.726,1.742c0.389,0.053 0.584,0.409 0.584,1.069c0,0.739 -0.195,1.108 -0.584,1.108c-0.999,0 -2.302,-0.079 -3.909,-0.237c-1.802,-0.159 -3.299,-0.238 -4.493,-0.238c-1.217,0 -2.605,0.079 -4.164,0.238c-1.388,0.158 -2.581,0.237 -3.58,0.237c-0.389,0 -0.584,-0.369 -0.584,-1.108c0,-0.66 0.195,-1.016 0.584,-1.069c2.046,-0.238 3.373,-0.759 3.982,-1.564c0.609,-0.804 0.913,-2.513 0.913,-5.126l0,-36.773c0,-2.137 -0.237,-3.536 -0.712,-4.195c-0.475,-0.66 -1.577,-1.096 -3.306,-1.307c-0.39,-0.052 -0.584,-0.382 -0.584,-0.989c0,-0.686 0.194,-1.029 0.584,-1.029c4.164,-1.056 7.245,-2.455 9.242,-4.196c0.365,-0.317 0.669,-0.475 0.913,-0.475c0.682,0 1.023,0.211 1.023,0.633c-0.39,4.328 -0.585,8.92 -0.585,13.775l0,13.419c3.482,-3.589 6.916,-5.383 10.301,-5.383c3.458,0 6.179,1.029 8.164,3.087c1.984,2.058 2.977,4.829 2.977,8.313l0,15.12c0,2.586 0.31,4.282 0.931,5.087c0.621,0.805 1.967,1.339 4.037,1.603c0.389,0.053 0.584,0.409 0.584,1.069Z" style="fill:#333;fill-rule:nonzero;"/><path d="M576.76,529.71c0,1.425 -0.317,2.137 -0.95,2.137l-10.885,-0.316l0,19c0,4.961 1.631,7.441 4.895,7.441c2.021,0 3.859,-0.514 5.515,-1.544c0.195,0 0.372,0.139 0.53,0.416c0.158,0.277 0.237,0.574 0.237,0.891c0,0.659 -0.907,1.55 -2.721,2.672c-1.814,1.121 -3.854,1.682 -6.118,1.682c-2.776,0 -4.992,-0.917 -6.648,-2.751c-1.656,-1.834 -2.484,-4.255 -2.484,-7.264l0,-0.356l0.146,-19.237c0,-0.739 -0.292,-1.109 -0.877,-1.109l-2.776,0c-0.536,0 -0.804,-0.343 -0.804,-1.029c0,-0.528 0.22,-0.924 0.658,-1.187c3.385,-2.164 6.331,-5.212 8.84,-9.144c0.268,-0.422 0.608,-0.634 1.022,-0.634c0.682,0 1.023,0.212 1.023,0.634l-0.292,7.56l10.739,0c0.633,0 0.95,0.713 0.95,2.138Z" style="fill:#333;fill-rule:nonzero;"/><path d="M611.76,572.033c-1.126,6.386 -3.914,12.013 -8.364,16.882c-4.451,4.869 -9.026,7.303 -13.726,7.303c-1.631,0 -2.858,-0.33 -3.679,-0.99c-0.821,-0.659 -1.129,-1.57 -0.925,-2.731c0.191,-1.082 0.719,-1.933 1.583,-2.553c0.864,-0.62 1.954,-0.93 3.269,-0.93c1.169,0 2.264,0.488 3.285,1.464c0.854,0.818 1.671,1.228 2.45,1.228c1.656,0 3.244,-0.997 4.764,-2.989c1.52,-1.992 2.58,-4.691 3.181,-8.095l1.626,-9.223l0.771,-3.958l1.503,-8.526l2.001,-11.345l0.169,-1.567l1.236,-7.008l3.362,0.183l-3.362,-0.183l1.333,-7.564c0.131,-0.739 -0.096,-1.109 -0.681,-1.109l-3.726,0c-0.487,0 -0.67,-0.343 -0.549,-1.029c0.121,-0.686 0.41,-1.082 0.867,-1.187c3.252,-0.766 4.941,-1.505 5.067,-2.217c1.126,-6.386 3.914,-12.014 8.364,-16.882c4.451,-4.869 9.026,-7.304 13.726,-7.304c1.631,0 2.858,0.33 3.679,0.99c0.821,0.66 1.129,1.57 0.925,2.731c-0.191,1.082 -0.719,1.933 -1.583,2.553c-0.864,0.621 -1.954,0.931 -3.269,0.931c-1.169,0 -2.264,-0.489 -3.285,-1.465c-0.854,-0.818 -1.671,-1.227 -2.45,-1.227c-1.656,0 -3.244,0.996 -4.764,2.988c-1.52,1.993 -2.581,4.691 -3.181,8.095l-1.626,9.223l12.458,0c0.602,0.087 -0.376,1.756 -0.612,3.096c-0.251,1.425 -3.833,1.179 -4.418,1.179l-8.199,-0.316l-1.503,8.525l-2.001,11.345l-0.169,1.567l-1.236,7.009l-1.334,7.564" style="fill:#333;"/><path d="M658.618,558.606c0,0.554 -0.195,0.857 -0.584,0.91c-4.432,0.528 -7.464,1.451 -9.096,2.771c-0.341,0.29 -0.681,0.435 -1.022,0.435c-0.487,0 -0.731,-0.211 -0.731,-0.633l0.292,-4.988c-3.604,3.536 -6.867,5.305 -9.789,5.305c-3.336,0 -5.936,-1.023 -7.799,-3.068c-1.863,-2.045 -2.794,-4.823 -2.794,-8.332l0,-14.805c0,-2.348 -0.28,-3.905 -0.84,-4.67c-0.56,-0.766 -1.668,-1.148 -3.324,-1.148c-0.317,0 -0.67,0.013 -1.06,0.039c-0.365,0 -0.547,-0.343 -0.547,-1.029c0,-0.844 0.194,-1.267 0.584,-1.267c2.825,0 6.526,-0.593 11.104,-1.781c0.439,0 0.658,0.33 0.658,0.99l0,21.771c0,2.981 0.523,5.152 1.571,6.511c1.047,1.359 2.69,2.039 4.931,2.039c1.437,0 2.703,-0.291 3.799,-0.871c1.095,-0.581 2.264,-1.61 3.506,-3.088l0,-17.496c0,-2.322 -0.286,-3.872 -0.858,-4.651c-0.572,-0.778 -1.711,-1.167 -3.415,-1.167c-0.293,0 -0.634,0.013 -1.023,0.039c-0.365,0 -0.548,-0.343 -0.548,-1.029c0,-0.844 0.195,-1.267 0.584,-1.267c2.825,0 6.527,-0.593 11.105,-1.781c0.438,0 0.657,0.33 0.657,0.99l0,25.254c0,1.821 0.238,3.041 0.712,3.661c0.475,0.62 1.589,1.062 3.343,1.326c0.389,0 0.584,0.343 0.584,1.03Z" style="fill:#333;fill-rule:nonzero;"/><path d="M684.662,529.71c0,1.425 -0.316,2.137 -0.949,2.137l-10.886,-0.316l0,19c0,4.961 1.632,7.441 4.895,7.441c2.021,0 3.86,-0.514 5.516,-1.544c0.195,0 0.371,0.139 0.529,0.416c0.159,0.277 0.238,0.574 0.238,0.891c0,0.659 -0.907,1.55 -2.721,2.672c-1.815,1.121 -3.854,1.682 -6.119,1.682c-2.776,0 -4.992,-0.917 -6.648,-2.751c-1.656,-1.834 -2.484,-4.255 -2.484,-7.264l0,-0.356l0.146,-19.237c0,-0.739 -0.292,-1.109 -0.876,-1.109l-2.776,0c-0.536,0 -0.804,-0.343 -0.804,-1.029c0,-0.528 0.219,-0.924 0.658,-1.187c3.384,-2.164 6.331,-5.212 8.839,-9.144c0.268,-0.422 0.609,-0.634 1.023,-0.634c0.682,0 1.023,0.212 1.023,0.634l-0.292,7.56l10.739,0c0.633,0 0.949,0.713 0.949,2.138Z" style="fill:#333;fill-rule:nonzero;"/><path d="M723.783,558.606c0,0.554 -0.194,0.857 -0.584,0.91c-4.432,0.528 -7.464,1.451 -9.095,2.771c-0.341,0.29 -0.682,0.435 -1.023,0.435c-0.487,0 -0.731,-0.211 -0.731,-0.633l0.293,-4.988c-3.604,3.536 -6.868,5.305 -9.79,5.305c-3.336,0 -5.936,-1.023 -7.798,-3.068c-1.863,-2.045 -2.795,-4.823 -2.795,-8.332l0,-14.805c0,-2.348 -0.28,-3.905 -0.84,-4.67c-0.56,-0.766 -1.668,-1.148 -3.324,-1.148c-0.317,0 -0.67,0.013 -1.059,0.039c-0.366,0 -0.548,-0.343 -0.548,-1.029c0,-0.844 0.195,-1.267 0.584,-1.267c2.825,0 6.527,-0.593 11.105,-1.781c0.438,0 0.657,0.33 0.657,0.99l0,21.771c0,2.981 0.524,5.152 1.571,6.511c1.047,1.359 2.691,2.039 4.931,2.039c1.437,0 2.703,-0.291 3.799,-0.871c1.096,-0.581 2.265,-1.61 3.507,-3.088l0,-17.496c0,-2.322 -0.287,-3.872 -0.859,-4.651c-0.572,-0.778 -1.711,-1.167 -3.415,-1.167c-0.292,0 -0.633,0.013 -1.023,0.039c-0.365,0 -0.548,-0.343 -0.548,-1.029c0,-0.844 0.195,-1.267 0.585,-1.267c2.824,0 6.526,-0.593 11.104,-1.781c0.438,0 0.657,0.33 0.657,0.99l0,25.254c0,1.821 0.238,3.041 0.713,3.661c0.475,0.62 1.589,1.062 3.342,1.326c0.39,0 0.584,0.343 0.584,1.03Z" style="fill:#333;fill-rule:nonzero;"/><path d="M751.8,529.789c0,1.055 -0.298,1.953 -0.895,2.692c-0.596,0.738 -1.321,1.108 -2.173,1.108c-1.072,0 -2.131,-0.383 -3.178,-1.148c-0.828,-0.607 -1.546,-0.91 -2.155,-0.91c-1.583,0 -3.215,1.002 -4.895,3.008l0,17.812c0,2.296 0.365,3.899 1.096,4.81c0.731,0.91 2.289,1.537 4.675,1.88c0.39,0.053 0.585,0.409 0.585,1.069c0,0.739 -0.195,1.108 -0.585,1.108c-0.998,0 -2.41,-0.079 -4.237,-0.237c-2.021,-0.159 -3.628,-0.238 -4.821,-0.238c-1.218,0 -2.691,0.079 -4.42,0.238c-1.559,0.158 -2.837,0.237 -3.836,0.237c-0.389,0 -0.584,-0.369 -0.584,-1.108c0,-0.66 0.195,-1.016 0.584,-1.069c2.119,-0.29 3.477,-0.831 4.073,-1.623c0.597,-0.792 0.895,-2.481 0.895,-5.067l0,-14.645c0,-2.112 -0.249,-3.497 -0.749,-4.157c-0.499,-0.659 -1.613,-1.095 -3.342,-1.306c-0.39,0 -0.584,-0.343 -0.584,-1.029c0,-0.633 0.194,-0.95 0.584,-0.95c2.411,-0.66 4.402,-1.392 5.972,-2.197c1.571,-0.805 2.6,-1.498 3.087,-2.078c0.292,-0.317 0.584,-0.475 0.877,-0.475c0.681,0 1.022,0.211 1.022,0.633l-0.292,4.988c1.948,-1.953 3.622,-3.325 5.023,-4.117c1.4,-0.792 2.794,-1.187 4.182,-1.187c1.12,0 2.082,0.395 2.886,1.187c0.803,0.792 1.205,1.715 1.205,2.771Z" style="fill:#333;fill-rule:nonzero;"/><path d="M783.287,538.735c0,0.739 -0.438,1.108 -1.315,1.108l-20.017,0c-0.146,1.425 -0.219,2.903 -0.219,4.433c0,4.249 0.931,7.515 2.794,9.797c1.863,2.283 4.511,3.424 7.945,3.424c1.729,0 3.47,-0.501 5.223,-1.504c1.754,-1.003 3.166,-2.283 4.237,-3.84l0.183,-0.079c0.219,0 0.432,0.145 0.639,0.436c0.207,0.29 0.311,0.633 0.311,1.029c0,0.554 -0.779,1.709 -2.338,3.463c-1.558,1.755 -3.251,3.094 -5.077,4.018c-1.827,0.924 -3.738,1.386 -5.735,1.386c-4.383,0 -8.073,-1.742 -11.068,-5.225c-2.995,-3.484 -4.493,-7.759 -4.493,-12.825c0,-5.173 1.467,-9.553 4.402,-13.142c2.934,-3.589 6.654,-5.383 11.159,-5.383c3.774,0 6.946,1.339 9.515,4.017c2.569,2.679 3.854,5.641 3.854,8.887Zm-6.648,-3.484c0,-1.979 -0.627,-3.622 -1.881,-4.928c-1.254,-1.306 -2.868,-1.959 -4.84,-1.959c-1.875,0 -3.501,0.851 -4.877,2.553c-1.375,1.702 -2.307,3.939 -2.794,6.709l10.155,-0.316c1.534,-0.027 2.624,-0.185 3.269,-0.475c0.645,-0.291 0.968,-0.818 0.968,-1.584Z" style="fill:#333;fill-rule:nonzero;"/><path d="M835.777,507.424c0,1.082 -0.377,1.933 -1.132,2.553c-0.755,0.621 -1.79,0.931 -3.105,0.931c-1.169,0 -2.35,-0.489 -3.543,-1.465c-0.999,-0.818 -1.887,-1.227 -2.667,-1.227c-1.656,0 -3.068,0.996 -4.237,2.988c-1.169,1.993 -1.753,4.691 -1.753,8.095l0,9.223l8.182,0c0.584,0 0.877,0.713 0.877,2.138c0,1.425 -0.293,2.137 -0.877,2.137l-8.255,-0.316l0,19.87c0,2.586 0.292,4.275 0.876,5.067c0.585,0.792 1.924,1.333 4.018,1.623c0.39,0.053 0.585,0.409 0.585,1.069c0,0.739 -0.195,1.108 -0.585,1.108c-0.998,0 -2.264,-0.079 -3.798,-0.237c-1.729,-0.159 -3.191,-0.238 -4.384,-0.238c-1.217,0 -2.678,0.079 -4.383,0.238c-1.534,0.158 -2.801,0.237 -3.799,0.237c-0.39,0 -0.584,-0.369 -0.584,-1.108c0,-0.66 0.194,-1.016 0.584,-1.069c2.07,-0.29 3.403,-0.831 4,-1.623c0.596,-0.792 0.895,-2.481 0.895,-5.067l0,-18.92c0,-0.739 -0.292,-1.109 -0.877,-1.109l-3.726,0c-0.487,0 -0.73,-0.343 -0.73,-1.029c0,-0.686 0.219,-1.082 0.657,-1.187c3.117,-0.766 4.676,-1.505 4.676,-2.217c0,-6.386 1.796,-12.014 5.388,-16.882c3.591,-4.869 7.737,-7.304 12.437,-7.304c1.632,0 2.916,0.33 3.854,0.99c0.937,0.66 1.406,1.57 1.406,2.731Z" style="fill:#333;fill-rule:nonzero;"/><path d="M865.292,544.356c0,5.251 -1.577,9.572 -4.731,12.963c-3.153,3.391 -7.238,5.087 -12.255,5.087c-5.016,0 -9.107,-1.703 -12.273,-5.107c-3.166,-3.404 -4.749,-7.718 -4.749,-12.943c0,-5.305 1.595,-9.718 4.785,-13.241c3.19,-3.523 7.269,-5.284 12.237,-5.284c4.992,0 9.071,1.754 12.237,5.264c3.166,3.51 4.749,7.93 4.749,13.261Zm-7.343,-0.08c0,-4.829 -0.858,-8.688 -2.575,-11.578c-1.717,-2.889 -4.073,-4.334 -7.068,-4.334c-2.971,0 -5.321,1.451 -7.05,4.354c-1.729,2.903 -2.593,6.756 -2.593,11.558c0,4.777 0.852,8.57 2.557,11.381c1.704,2.81 4.067,4.215 7.086,4.215c3.02,0 5.382,-1.392 7.087,-4.176c1.704,-2.784 2.556,-6.59 2.556,-11.42Z" style="fill:#333;fill-rule:nonzero;"/><path d="M895.062,529.789c0,1.055 -0.299,1.953 -0.895,2.692c-0.597,0.738 -1.321,1.108 -2.174,1.108c-1.071,0 -2.131,-0.383 -3.178,-1.148c-0.828,-0.607 -1.546,-0.91 -2.155,-0.91c-1.583,0 -3.214,1.002 -4.895,3.008l0,17.812c0,2.296 0.366,3.899 1.096,4.81c0.731,0.91 2.289,1.537 4.676,1.88c0.389,0.053 0.584,0.409 0.584,1.069c0,0.739 -0.195,1.108 -0.584,1.108c-0.999,0 -2.411,-0.079 -4.237,-0.237c-2.022,-0.159 -3.629,-0.238 -4.822,-0.238c-1.218,0 -2.691,0.079 -4.42,0.238c-1.558,0.158 -2.837,0.237 -3.835,0.237c-0.39,0 -0.585,-0.369 -0.585,-1.108c0,-0.66 0.195,-1.016 0.585,-1.069c2.118,-0.29 3.476,-0.831 4.073,-1.623c0.596,-0.792 0.894,-2.481 0.894,-5.067l0,-14.645c0,-2.112 -0.249,-3.497 -0.748,-4.157c-0.5,-0.659 -1.614,-1.095 -3.343,-1.306c-0.389,0 -0.584,-0.343 -0.584,-1.029c0,-0.633 0.195,-0.95 0.584,-0.95c2.411,-0.66 4.402,-1.392 5.973,-2.197c1.57,-0.805 2.599,-1.498 3.086,-2.078c0.292,-0.317 0.585,-0.475 0.877,-0.475c0.682,0 1.023,0.211 1.023,0.633l-0.293,4.988c1.949,-1.953 3.623,-3.325 5.023,-4.117c1.4,-0.792 2.794,-1.187 4.182,-1.187c1.121,0 2.083,0.395 2.886,1.187c0.804,0.792 1.206,1.715 1.206,2.771Z" style="fill:#333;fill-rule:nonzero;"/><path d="M944.812,538.735c0,0.739 -0.438,1.108 -1.315,1.108l-20.017,0c-0.146,1.425 -0.219,2.903 -0.219,4.433c0,4.249 0.931,7.515 2.794,9.797c1.863,2.283 4.511,3.424 7.945,3.424c1.729,0 3.47,-0.501 5.223,-1.504c1.754,-1.003 3.166,-2.283 4.238,-3.84l0.182,-0.079c0.219,0 0.433,0.145 0.64,0.436c0.206,0.29 0.31,0.633 0.31,1.029c0,0.554 -0.779,1.709 -2.338,3.463c-1.558,1.755 -3.251,3.094 -5.077,4.018c-1.827,0.924 -3.738,1.386 -5.735,1.386c-4.383,0 -8.073,-1.742 -11.068,-5.225c-2.995,-3.484 -4.493,-7.759 -4.493,-12.825c0,-5.173 1.467,-9.553 4.402,-13.142c2.934,-3.589 6.654,-5.383 11.159,-5.383c3.775,0 6.946,1.339 9.515,4.017c2.57,2.679 3.854,5.641 3.854,8.887Zm-6.648,-3.484c0,-1.979 -0.627,-3.622 -1.881,-4.928c-1.254,-1.306 -2.867,-1.959 -4.84,-1.959c-1.875,0 -3.501,0.851 -4.876,2.553c-1.376,1.702 -2.308,3.939 -2.795,6.709l10.155,-0.316c1.534,-0.027 2.624,-0.185 3.269,-0.475c0.645,-0.291 0.968,-0.818 0.968,-1.584Z" style="fill:#333;fill-rule:nonzero;"/><path d="M982.18,528.206c0,0.686 -0.195,1.055 -0.585,1.108c-2.045,0.237 -3.415,0.765 -4.109,1.583c-0.694,0.818 -1.564,2.507 -2.612,5.067l-10.483,25.887c-0.171,0.423 -0.463,0.634 -0.877,0.634c-0.438,0 -0.742,-0.211 -0.913,-0.634l-9.826,-25.887c-0.901,-2.428 -1.814,-4.09 -2.739,-4.988c-0.926,-0.897 -2.18,-1.464 -3.763,-1.702c-0.389,-0.053 -0.584,-0.409 -0.584,-1.068c0,-0.739 0.195,-1.109 0.584,-1.109c0.999,0 2.241,0.079 3.726,0.238c1.607,0.158 2.995,0.237 4.164,0.237c1.193,0 2.642,-0.079 4.347,-0.237c1.51,-0.159 2.764,-0.238 3.762,-0.238c0.39,0 0.585,0.37 0.585,1.109c0,0.659 -0.195,1.015 -0.585,1.068c-1.461,0.211 -2.471,0.495 -3.031,0.851c-0.561,0.357 -0.841,0.878 -0.841,1.564c0,0.818 0.366,2.23 1.096,4.235l5.991,16.823l6.063,-16.783c0.731,-1.979 1.096,-3.404 1.096,-4.275c0,-0.686 -0.274,-1.207 -0.822,-1.564c-0.548,-0.356 -1.516,-0.64 -2.904,-0.851c-0.389,-0.053 -0.584,-0.409 -0.584,-1.068c0,-0.739 0.195,-1.109 0.584,-1.109c1.023,0 2.168,0.079 3.434,0.238c1.193,0.158 2.265,0.237 3.214,0.237c0.487,0 1.279,-0.066 2.375,-0.198c1.51,-0.184 2.727,-0.277 3.652,-0.277c0.39,0 0.585,0.37 0.585,1.109Z" style="fill:#333;fill-rule:nonzero;"/><path d="M1012.24,538.735c0,0.739 -0.438,1.108 -1.315,1.108l-20.017,0c-0.146,1.425 -0.219,2.903 -0.219,4.433c0,4.249 0.931,7.515 2.794,9.797c1.863,2.283 4.511,3.424 7.945,3.424c1.729,0 3.47,-0.501 5.223,-1.504c1.754,-1.003 3.166,-2.283 4.238,-3.84l0.182,-0.079c0.219,0 0.433,0.145 0.639,0.436c0.207,0.29 0.311,0.633 0.311,1.029c0,0.554 -0.779,1.709 -2.338,3.463c-1.558,1.755 -3.251,3.094 -5.077,4.018c-1.827,0.924 -3.738,1.386 -5.735,1.386c-4.383,0 -8.073,-1.742 -11.068,-5.225c-2.995,-3.484 -4.493,-7.759 -4.493,-12.825c0,-5.173 1.467,-9.553 4.402,-13.142c2.934,-3.589 6.654,-5.383 11.159,-5.383c3.775,0 6.946,1.339 9.515,4.017c2.57,2.679 3.854,5.641 3.854,8.887Zm-6.648,-3.484c0,-1.979 -0.627,-3.622 -1.881,-4.928c-1.254,-1.306 -2.867,-1.959 -4.84,-1.959c-1.875,0 -3.501,0.851 -4.876,2.553c-1.376,1.702 -2.308,3.939 -2.795,6.709l10.155,-0.316c1.534,-0.027 2.624,-0.185 3.269,-0.475c0.645,-0.291 0.968,-0.818 0.968,-1.584Z" style="fill:#333;fill-rule:nonzero;"/><path d="M1042.12,529.789c0,1.055 -0.299,1.953 -0.895,2.692c-0.597,0.738 -1.321,1.108 -2.174,1.108c-1.071,0 -2.13,-0.383 -3.177,-1.148c-0.828,-0.607 -1.547,-0.91 -2.156,-0.91c-1.582,0 -3.214,1.002 -4.894,3.008l0,17.812c0,2.296 0.365,3.899 1.096,4.81c0.73,0.91 2.289,1.537 4.675,1.88c0.39,0.053 0.584,0.409 0.584,1.069c0,0.739 -0.194,1.108 -0.584,1.108c-0.998,0 -2.411,-0.079 -4.237,-0.237c-2.021,-0.159 -3.629,-0.238 -4.822,-0.238c-1.217,0 -2.691,0.079 -4.42,0.238c-1.558,0.158 -2.837,0.237 -3.835,0.237c-0.39,0 -0.584,-0.369 -0.584,-1.108c0,-0.66 0.194,-1.016 0.584,-1.069c2.119,-0.29 3.476,-0.831 4.073,-1.623c0.596,-0.792 0.895,-2.481 0.895,-5.067l0,-14.645c0,-2.112 -0.25,-3.497 -0.749,-4.157c-0.499,-0.659 -1.613,-1.095 -3.342,-1.306c-0.39,0 -0.585,-0.343 -0.585,-1.029c0,-0.633 0.195,-0.95 0.585,-0.95c2.41,-0.66 4.401,-1.392 5.972,-2.197c1.571,-0.805 2.599,-1.498 3.086,-2.078c0.293,-0.317 0.585,-0.475 0.877,-0.475c0.682,0 1.023,0.211 1.023,0.633l-0.292,4.988c1.948,-1.953 3.622,-3.325 5.022,-4.117c1.4,-0.792 2.795,-1.187 4.183,-1.187c1.12,0 2.082,0.395 2.885,1.187c0.804,0.792 1.206,1.715 1.206,2.771Z" style="fill:#333;fill-rule:nonzero;"/><path d="M1077.77,528.206c0,0.686 -0.195,1.055 -0.585,1.108c-1.656,0.185 -2.928,0.706 -3.817,1.563c-0.889,0.858 -1.869,2.554 -2.94,5.087l-17.241,40.375c-1.924,4.328 -4.165,6.492 -6.721,6.492c-1.242,0 -2.235,-0.363 -2.977,-1.089c-0.743,-0.726 -1.115,-1.656 -1.115,-2.791c0,-1.187 0.372,-2.157 1.115,-2.909c0.742,-0.752 1.735,-1.128 2.977,-1.128c0.584,0 1.254,0.198 2.009,0.594c0.487,0.237 0.84,0.356 1.059,0.356c0.901,0 1.96,-1.478 3.178,-4.433l4.42,-10.688l-9.425,-24.779c-0.901,-2.402 -1.808,-4.057 -2.721,-4.968c-0.913,-0.91 -2.149,-1.471 -3.707,-1.682c-0.39,-0.053 -0.585,-0.422 -0.585,-1.108c0,-0.739 0.195,-1.109 0.585,-1.109c0.998,0 2.216,0.079 3.652,0.238c1.608,0.158 3.02,0.237 4.238,0.237c1.193,0 2.678,-0.079 4.456,-0.237c1.583,-0.159 2.873,-0.238 3.872,-0.238c0.39,0 0.584,0.37 0.584,1.109c0,0.686 -0.194,1.055 -0.584,1.108c-2.581,0.343 -3.872,1.135 -3.872,2.375c0,0.871 0.353,2.296 1.059,4.275l5.954,16.546l6.502,-16.546c0.585,-1.504 0.877,-2.745 0.877,-3.721c0,-1.662 -1.169,-2.652 -3.507,-2.969c-0.389,-0.053 -0.584,-0.409 -0.584,-1.068c0,-0.739 0.195,-1.109 0.584,-1.109c1.023,0 2.155,0.079 3.397,0.238c1.193,0.158 2.277,0.237 3.251,0.237c0.487,0 1.279,-0.066 2.374,-0.198c1.51,-0.184 2.728,-0.277 3.653,-0.277c0.39,0 0.585,0.37 0.585,1.109Z" style="fill:#333;fill-rule:nonzero;"/><path d="M1124.6,532.085c0,2.164 -0.998,3.246 -2.995,3.246c-0.852,0 -1.553,-0.198 -2.1,-0.594c-0.548,-0.396 -1.102,-1.254 -1.662,-2.573c-0.658,-1.557 -1.358,-2.58 -2.101,-3.068c-0.743,-0.488 -1.711,-0.732 -2.904,-0.732c-2.946,0 -5.193,1.326 -6.739,3.978c-1.546,2.652 -2.32,6.525 -2.32,11.618c0,4.248 0.974,7.672 2.923,10.272c1.948,2.599 4.553,3.899 7.816,3.899c3.702,0 6.636,-1.254 8.804,-3.761l0.182,-0.079c0.219,0 0.433,0.152 0.64,0.455c0.207,0.304 0.31,0.64 0.31,1.01c0,0.527 -0.712,1.438 -2.137,2.731c-1.424,1.293 -2.983,2.269 -4.675,2.929c-1.693,0.66 -3.489,0.99 -5.388,0.99c-4.359,0 -8.091,-1.736 -11.196,-5.206c-3.105,-3.47 -4.657,-7.857 -4.657,-13.161c0,-5.252 1.625,-9.599 4.876,-13.043c3.251,-3.444 7.105,-5.165 11.561,-5.165c3.288,0 6.07,0.613 8.347,1.84c2.277,1.227 3.415,2.698 3.415,4.414Z" style="fill:#333;fill-rule:nonzero;"/><path d="M1167.74,560.11c0,0.739 -0.195,1.108 -0.584,1.108c-0.974,0 -2.18,-0.079 -3.616,-0.237c-1.559,-0.159 -2.923,-0.238 -4.092,-0.238c-1.217,0 -2.617,0.079 -4.2,0.238c-1.437,0.158 -2.642,0.237 -3.616,0.237c-0.39,0 -0.585,-0.369 -0.585,-1.108c0,-0.66 0.195,-1.016 0.585,-1.069c1.68,-0.211 2.782,-0.726 3.305,-1.544c0.524,-0.818 0.786,-2.533 0.786,-5.146l0,-13.22c0,-5.7 -2.387,-8.55 -7.16,-8.55c-3.019,0 -5.625,1.319 -7.817,3.958l0,17.812c0,2.375 0.317,4.025 0.95,4.948c0.633,0.924 1.875,1.504 3.726,1.742c0.389,0.053 0.584,0.409 0.584,1.069c0,0.739 -0.195,1.108 -0.584,1.108c-0.999,0 -2.301,-0.079 -3.909,-0.237c-1.802,-0.159 -3.299,-0.238 -4.492,-0.238c-1.218,0 -2.606,0.079 -4.165,0.238c-1.388,0.158 -2.581,0.237 -3.579,0.237c-0.39,0 -0.585,-0.369 -0.585,-1.108c0,-0.66 0.195,-1.016 0.585,-1.069c2.045,-0.238 3.372,-0.759 3.981,-1.564c0.609,-0.804 0.913,-2.513 0.913,-5.126l0,-36.773c0,-2.137 -0.237,-3.536 -0.712,-4.195c-0.475,-0.66 -1.577,-1.096 -3.306,-1.307c-0.389,-0.052 -0.584,-0.382 -0.584,-0.989c0,-0.686 0.195,-1.029 0.584,-1.029c4.164,-1.056 7.245,-2.455 9.242,-4.196c0.365,-0.317 0.669,-0.475 0.913,-0.475c0.682,0 1.023,0.211 1.023,0.633c-0.39,4.328 -0.585,8.92 -0.585,13.775l0,13.419c3.483,-3.589 6.916,-5.383 10.301,-5.383c3.458,0 6.179,1.029 8.164,3.087c1.985,2.058 2.977,4.829 2.977,8.313l0,15.12c0,2.586 0.311,4.282 0.931,5.087c0.621,0.805 1.967,1.339 4.037,1.603c0.389,0.053 0.584,0.409 0.584,1.069Z" style="fill:#333;fill-rule:nonzero;"/><path d="M1182.39,512.253c0,1.109 -0.372,2.072 -1.114,2.89c-0.743,0.818 -1.638,1.227 -2.685,1.227c-1.047,0 -1.942,-0.409 -2.685,-1.227c-0.743,-0.818 -1.114,-1.781 -1.114,-2.89c0,-1.161 0.365,-2.137 1.096,-2.929c0.73,-0.791 1.631,-1.187 2.703,-1.187c1.047,0 1.942,0.396 2.685,1.187c0.742,0.792 1.114,1.768 1.114,2.929Zm5.114,47.857c0,0.739 -0.195,1.108 -0.585,1.108c-0.998,0 -2.277,-0.079 -3.835,-0.237c-1.753,-0.159 -3.227,-0.238 -4.42,-0.238c-1.218,0 -2.679,0.079 -4.383,0.238c-1.534,0.158 -2.801,0.237 -3.799,0.237c-0.39,0 -0.585,-0.369 -0.585,-1.108c0,-0.66 0.195,-1.016 0.585,-1.069c2.07,-0.29 3.403,-0.831 4,-1.623c0.596,-0.792 0.895,-2.481 0.895,-5.067l0,-14.645c0,-2.112 -0.25,-3.497 -0.749,-4.157c-0.5,-0.659 -1.589,-1.095 -3.27,-1.306c-0.389,0 -0.584,-0.343 -0.584,-1.029c0,-0.633 0.195,-0.95 0.584,-0.95c2.557,-0.713 4.652,-1.471 6.283,-2.276c1.632,-0.805 2.655,-1.471 3.069,-1.999c0.243,-0.317 0.511,-0.475 0.803,-0.475c0.682,0 1.023,0.211 1.023,0.633c-0.39,5.911 -0.585,10.503 -0.585,13.775l0,12.429c0,2.586 0.299,4.275 0.895,5.067c0.597,0.792 1.955,1.333 4.073,1.623c0.39,0.053 0.585,0.409 0.585,1.069Z" style="fill:#333;fill-rule:nonzero;"/><path d="M1207.15,560.031c0,0.738 -0.195,1.108 -0.585,1.108c-0.998,0 -2.277,-0.066 -3.835,-0.198c-1.754,-0.132 -3.227,-0.198 -4.42,-0.198c-1.169,0 -2.618,0.066 -4.347,0.198c-1.558,0.132 -2.837,0.198 -3.835,0.198c-0.39,0 -0.585,-0.37 -0.585,-1.108c0,-0.66 0.195,-1.016 0.585,-1.069c2.07,-0.264 3.415,-0.798 4.036,-1.603c0.621,-0.805 0.931,-2.501 0.931,-5.087l0,-36.773c0,-2.137 -0.243,-3.536 -0.73,-4.196c-0.487,-0.659 -1.607,-1.095 -3.361,-1.306c-0.389,-0.053 -0.584,-0.382 -0.584,-0.989c0,-0.634 0.195,-0.95 0.584,-0.95c2.557,-0.713 4.652,-1.472 6.283,-2.276c1.632,-0.805 2.654,-1.485 3.068,-2.039c0.244,-0.29 0.512,-0.435 0.804,-0.435c0.682,0 1.023,0.211 1.023,0.633c-0.39,5.911 -0.585,10.503 -0.585,13.775l0,34.556c0,2.586 0.305,4.282 0.914,5.087c0.608,0.805 1.96,1.339 4.054,1.603c0.39,0.053 0.585,0.409 0.585,1.069Z" style="fill:#333;fill-rule:nonzero;"/><path d="M1246.57,558.606c0,0.554 -0.195,0.857 -0.585,0.91c-1.388,0.185 -2.995,0.554 -4.821,1.108c-1.827,0.554 -3.251,1.109 -4.274,1.663c-0.536,0.29 -0.925,0.435 -1.169,0.435c-0.389,0 -0.584,-0.211 -0.584,-0.633l0.292,-4.275c-2.581,3.061 -5.869,4.592 -9.863,4.592c-4.212,0 -7.798,-1.755 -10.757,-5.265c-2.959,-3.51 -4.438,-7.719 -4.438,-12.627c0,-5.568 1.638,-10.074 4.913,-13.518c3.275,-3.444 7.385,-5.165 12.328,-5.165c2.825,0 5.43,0.95 7.817,2.85l0,-13.182c0,-2.137 -0.244,-3.536 -0.731,-4.196c-0.487,-0.659 -1.607,-1.095 -3.36,-1.306c-0.39,-0.053 -0.585,-0.382 -0.585,-0.989c0,-0.687 0.195,-1.03 0.585,-1.03c2.289,-0.58 4.274,-1.279 5.954,-2.097c1.68,-0.819 2.812,-1.544 3.397,-2.178c0.243,-0.263 0.499,-0.395 0.767,-0.395c0.682,0 1.023,0.211 1.023,0.633c-0.39,5.753 -0.585,10.344 -0.585,13.775l0,34.873c0,1.821 0.244,3.041 0.731,3.661c0.487,0.62 1.607,1.062 3.36,1.326c0.39,0 0.585,0.343 0.585,1.03Zm-11.141,-4.275l0,-20.267c0,-1.372 -0.737,-2.665 -2.21,-3.879c-1.473,-1.214 -3.074,-1.821 -4.803,-1.821c-7.111,0 -10.666,5.41 -10.666,16.229c0,4.275 0.852,7.824 2.556,10.648c1.705,2.824 3.945,4.235 6.722,4.235c1.582,0 3.019,-0.389 4.31,-1.167c1.29,-0.779 2.654,-2.105 4.091,-3.978Z" style="fill:#333;fill-rule:nonzero;"/><g><path d="M686.473,237.771c0,1.011 -0.295,1.516 -0.886,1.516c-2.476,0 -5.488,-0.108 -9.035,-0.325c-3.399,-0.216 -6.226,-0.325 -8.48,-0.325c-2.254,0 -5.007,0.109 -8.258,0.325c-3.4,0.217 -6.337,0.325 -8.813,0.325c-0.665,0 -0.998,-0.505 -0.998,-1.516c0,-0.903 0.296,-1.391 0.887,-1.463c4.323,-0.505 7.27,-1.282 8.841,-2.329c1.57,-1.047 2.355,-3.033 2.355,-5.958l0,-0.867l-2.328,-52.488l-26.715,65.488c-0.221,0.578 -0.739,0.867 -1.552,0.867c-0.849,0 -1.348,-0.289 -1.496,-0.867l-25.163,-62.888l-3.991,49.888c-0.074,0.614 -0.111,1.155 -0.111,1.625c0,2.419 0.85,4.153 2.55,5.2c1.7,1.047 4.729,1.805 9.09,2.275c0.517,0.072 0.776,0.578 0.776,1.517c0,1.011 -0.333,1.516 -0.998,1.516c-1.922,0 -4.545,-0.108 -7.871,-0.325c-3.103,-0.216 -5.505,-0.325 -7.205,-0.325c-1.847,0 -4.36,0.109 -7.538,0.325c-3.067,0.217 -5.431,0.325 -7.094,0.325c-0.517,0 -0.776,-0.505 -0.776,-1.516c0,-0.903 0.332,-1.391 0.998,-1.463c4.655,-0.542 7.879,-1.39 9.671,-2.546c1.792,-1.155 2.818,-3.358 3.076,-6.608l5.765,-50.971c0.037,-0.65 0.055,-1.228 0.055,-1.733c0,-2.347 -0.85,-4.045 -2.549,-5.092c-1.7,-1.047 -4.786,-1.842 -9.257,-2.383c-0.517,0 -0.775,-0.506 -0.775,-1.517c0,-0.361 0.11,-0.704 0.332,-1.029c0.222,-0.325 0.443,-0.488 0.665,-0.488c1.367,0 3.307,0.109 5.82,0.325c2.143,0.217 3.713,0.325 4.711,0.325c1.293,0 3.141,-0.108 5.543,-0.325c2.475,-0.216 4.397,-0.325 5.764,-0.325l23.777,60.288l24.609,-60.288c1.478,0 3.418,0.109 5.82,0.325c2.18,0.217 3.898,0.325 5.154,0.325c1.552,0 3.418,-0.108 5.598,-0.325c2.254,-0.216 4.194,-0.325 5.82,-0.325c0.665,0 0.998,0.506 0.998,1.517c0,1.011 -0.296,1.517 -0.887,1.517c-4.323,0.505 -7.27,1.282 -8.84,2.329c-1.571,1.047 -2.356,3.033 -2.356,5.958l0,0.921l2.55,50.971c0.11,2.528 0.508,4.297 1.191,5.308c0.684,1.011 1.857,1.815 3.52,2.411c1.662,0.595 4.046,1.074 7.15,1.435c0.591,0.072 0.886,0.56 0.886,1.463Z" style="fill:#333;fill-rule:nonzero;"/><path d="M731.202,237.771c0,1.011 -0.296,1.516 -0.887,1.516c-2.476,0 -5.413,-0.108 -8.813,-0.325c-3.251,-0.216 -6.004,-0.325 -8.258,-0.325c-2.254,0 -5.007,0.109 -8.259,0.325c-3.436,0.217 -6.41,0.325 -8.923,0.325c-0.591,0 -0.887,-0.505 -0.887,-1.516c0,-0.903 0.296,-1.391 0.887,-1.463c4.471,-0.505 7.51,-1.318 9.117,-2.437c1.608,-1.12 2.411,-3.359 2.411,-6.717l0,-50.971c0,-2.528 -0.323,-4.306 -0.969,-5.335c-0.647,-1.03 -1.783,-1.842 -3.409,-2.438c-1.626,-0.596 -4.009,-1.074 -7.15,-1.435c-0.591,0 -0.887,-0.506 -0.887,-1.517c0,-1.011 0.296,-1.517 0.887,-1.517c2.513,0 5.487,0.109 8.923,0.325c3.252,0.217 6.005,0.325 8.259,0.325c2.254,0 5.007,-0.108 8.258,-0.325c3.4,-0.216 6.337,-0.325 8.813,-0.325c0.591,0 0.887,0.506 0.887,1.517c0,1.011 -0.296,1.517 -0.887,1.517c-3.104,0.361 -5.469,0.839 -7.095,1.435c-1.625,0.596 -2.752,1.399 -3.381,2.411c-0.628,1.011 -0.942,2.798 -0.942,5.362l0,50.971c0,2.492 0.314,4.252 0.942,5.281c0.629,1.029 1.746,1.842 3.354,2.438c1.607,0.595 3.963,1.074 7.066,1.435c0.629,0.072 0.943,0.56 0.943,1.463Z" style="fill:#333;fill-rule:nonzero;"/><path d="M789.897,217.512c0,7.186 -2.18,12.901 -6.54,17.144c-4.36,4.243 -10.254,6.365 -17.681,6.365c-3.288,0 -7.223,-0.578 -11.805,-1.734c-4.176,-1.083 -7.594,-1.625 -10.254,-1.625c-0.222,-6.139 -0.665,-12.278 -1.33,-18.416c0,-0.578 0.554,-0.867 1.663,-0.867c0.775,0 1.256,0.289 1.441,0.867c1.995,6.716 4.544,11.447 7.648,14.191c3.104,2.745 7.464,4.117 13.081,4.117c4.471,0 7.935,-1.264 10.392,-3.792c2.457,-2.528 3.686,-6.066 3.686,-10.616c0,-2.925 -1.072,-5.643 -3.215,-8.153c-2.143,-2.509 -6.706,-5.75 -13.69,-9.722c-8.018,-4.514 -13.265,-8.342 -15.741,-11.484c-2.475,-3.141 -3.713,-6.626 -3.713,-10.454c0,-5.886 2.226,-10.86 6.678,-14.923c4.453,-4.062 10.097,-6.094 16.933,-6.094c2.586,0 5.561,0.343 8.923,1.03c3.141,0.613 5.857,0.92 8.148,0.92c0.443,6.356 1.035,11.953 1.774,16.792c0,0.578 -0.481,0.867 -1.442,0.867c-1.034,0 -1.607,-0.289 -1.718,-0.867c-1.219,-5.417 -3.067,-9.317 -5.542,-11.7c-2.476,-2.383 -5.894,-3.575 -10.254,-3.575c-4.138,0 -7.427,1.192 -9.866,3.575c-2.438,2.383 -3.658,5.597 -3.658,9.642c0,2.564 1.026,5.01 3.076,7.339c2.051,2.329 6.494,5.444 13.33,9.344c8.092,4.622 13.395,8.486 15.907,11.592c2.513,3.105 3.769,6.518 3.769,10.237Z" style="fill:#333;fill-rule:nonzero;"/><path d="M846.099,217.512c0,7.186 -2.181,12.901 -6.541,17.144c-4.36,4.243 -10.253,6.365 -17.68,6.365c-3.289,0 -7.224,-0.578 -11.806,-1.734c-4.175,-1.083 -7.593,-1.625 -10.254,-1.625c-0.221,-6.139 -0.665,-12.278 -1.33,-18.416c0,-0.578 0.554,-0.867 1.663,-0.867c0.776,0 1.256,0.289 1.441,0.867c1.995,6.716 4.545,11.447 7.649,14.191c3.103,2.745 7.464,4.117 13.08,4.117c4.471,0 7.935,-1.264 10.392,-3.792c2.458,-2.528 3.686,-6.066 3.686,-10.616c0,-2.925 -1.071,-5.643 -3.215,-8.153c-2.143,-2.509 -6.706,-5.75 -13.69,-9.722c-8.018,-4.514 -13.265,-8.342 -15.74,-11.484c-2.476,-3.141 -3.714,-6.626 -3.714,-10.454c0,-5.886 2.226,-10.86 6.679,-14.923c4.452,-4.062 10.096,-6.094 16.932,-6.094c2.587,0 5.561,0.343 8.924,1.03c3.141,0.613 5.856,0.92 8.147,0.92c0.444,6.356 1.035,11.953 1.774,16.792c0,0.578 -0.48,0.867 -1.441,0.867c-1.035,0 -1.607,-0.289 -1.718,-0.867c-1.22,-5.417 -3.067,-9.317 -5.543,-11.7c-2.476,-2.383 -5.893,-3.575 -10.254,-3.575c-4.138,0 -7.427,1.192 -9.865,3.575c-2.439,2.383 -3.658,5.597 -3.658,9.642c0,2.564 1.025,5.01 3.076,7.339c2.05,2.329 6.494,5.444 13.33,9.344c8.092,4.622 13.394,8.486 15.907,11.592c2.512,3.105 3.769,6.518 3.769,10.237Z" style="fill:#333;fill-rule:nonzero;"/><path d="M892.6,237.771c0,1.011 -0.295,1.516 -0.886,1.516c-2.476,0 -5.414,-0.108 -8.813,-0.325c-3.252,-0.216 -6.004,-0.325 -8.258,-0.325c-2.254,0 -5.007,0.109 -8.259,0.325c-3.436,0.217 -6.411,0.325 -8.923,0.325c-0.591,0 -0.887,-0.505 -0.887,-1.516c0,-0.903 0.296,-1.391 0.887,-1.463c4.471,-0.505 7.51,-1.318 9.117,-2.437c1.608,-1.12 2.411,-3.359 2.411,-6.717l0,-50.971c0,-2.528 -0.323,-4.306 -0.97,-5.335c-0.646,-1.03 -1.783,-1.842 -3.408,-2.438c-1.626,-0.596 -4.009,-1.074 -7.15,-1.435c-0.591,0 -0.887,-0.506 -0.887,-1.517c0,-1.011 0.296,-1.517 0.887,-1.517c2.512,0 5.487,0.109 8.923,0.325c3.252,0.217 6.005,0.325 8.259,0.325c2.254,0 5.006,-0.108 8.258,-0.325c3.399,-0.216 6.337,-0.325 8.813,-0.325c0.591,0 0.886,0.506 0.886,1.517c0,1.011 -0.295,1.517 -0.886,1.517c-3.104,0.361 -5.469,0.839 -7.095,1.435c-1.626,0.596 -2.753,1.399 -3.381,2.411c-0.628,1.011 -0.942,2.798 -0.942,5.362l0,50.971c0,2.492 0.314,4.252 0.942,5.281c0.628,1.029 1.746,1.842 3.354,2.438c1.607,0.595 3.962,1.074 7.066,1.435c0.628,0.072 0.942,0.56 0.942,1.463Z" style="fill:#333;fill-rule:nonzero;"/><path d="M951.296,217.512c0,7.186 -2.18,12.901 -6.54,17.144c-4.36,4.243 -10.254,6.365 -17.681,6.365c-3.288,0 -7.224,-0.578 -11.806,-1.734c-4.175,-1.083 -7.593,-1.625 -10.253,-1.625c-0.222,-6.139 -0.665,-12.278 -1.33,-18.416c0,-0.578 0.554,-0.867 1.662,-0.867c0.776,0 1.257,0.289 1.441,0.867c1.996,6.716 4.545,11.447 7.649,14.191c3.104,2.745 7.464,4.117 13.08,4.117c4.471,0 7.936,-1.264 10.393,-3.792c2.457,-2.528 3.686,-6.066 3.686,-10.616c0,-2.925 -1.072,-5.643 -3.215,-8.153c-2.143,-2.509 -6.707,-5.75 -13.69,-9.722c-8.018,-4.514 -13.265,-8.342 -15.741,-11.484c-2.476,-3.141 -3.714,-6.626 -3.714,-10.454c0,-5.886 2.227,-10.86 6.679,-14.923c4.453,-4.062 10.097,-6.094 16.933,-6.094c2.586,0 5.561,0.343 8.923,1.03c3.141,0.613 5.857,0.92 8.148,0.92c0.443,6.356 1.034,11.953 1.773,16.792c0,0.578 -0.48,0.867 -1.441,0.867c-1.034,0 -1.607,-0.289 -1.718,-0.867c-1.219,-5.417 -3.067,-9.317 -5.542,-11.7c-2.476,-2.383 -5.894,-3.575 -10.254,-3.575c-4.139,0 -7.427,1.192 -9.866,3.575c-2.439,2.383 -3.658,5.597 -3.658,9.642c0,2.564 1.025,5.01 3.076,7.339c2.051,2.329 6.494,5.444 13.33,9.344c8.092,4.622 13.394,8.486 15.907,11.592c2.513,3.105 3.769,6.518 3.769,10.237Z" style="fill:#333;fill-rule:nonzero;"/><path d="M1007.5,217.512c0,7.186 -2.18,12.901 -6.54,17.144c-4.36,4.243 -10.254,6.365 -17.681,6.365c-3.288,0 -7.223,-0.578 -11.805,-1.734c-4.176,-1.083 -7.593,-1.625 -10.254,-1.625c-0.222,-6.139 -0.665,-12.278 -1.33,-18.416c0,-0.578 0.554,-0.867 1.663,-0.867c0.776,0 1.256,0.289 1.441,0.867c1.995,6.716 4.545,11.447 7.648,14.191c3.104,2.745 7.464,4.117 13.081,4.117c4.471,0 7.935,-1.264 10.392,-3.792c2.457,-2.528 3.686,-6.066 3.686,-10.616c0,-2.925 -1.072,-5.643 -3.215,-8.153c-2.143,-2.509 -6.706,-5.75 -13.69,-9.722c-8.018,-4.514 -13.265,-8.342 -15.741,-11.484c-2.475,-3.141 -3.713,-6.626 -3.713,-10.454c0,-5.886 2.226,-10.86 6.679,-14.923c4.452,-4.062 10.096,-6.094 16.932,-6.094c2.587,0 5.561,0.343 8.924,1.03c3.14,0.613 5.856,0.92 8.147,0.92c0.443,6.356 1.035,11.953 1.774,16.792c0,0.578 -0.481,0.867 -1.441,0.867c-1.035,0 -1.608,-0.289 -1.719,-0.867c-1.219,-5.417 -3.066,-9.317 -5.542,-11.7c-2.476,-2.383 -5.894,-3.575 -10.254,-3.575c-4.138,0 -7.427,1.192 -9.866,3.575c-2.438,2.383 -3.658,5.597 -3.658,9.642c0,2.564 1.026,5.01 3.077,7.339c2.05,2.329 6.494,5.444 13.329,9.344c8.092,4.622 13.395,8.486 15.907,11.592c2.513,3.105 3.769,6.518 3.769,10.237Z" style="fill:#333;fill-rule:nonzero;"/><path d="M1054,237.771c0,1.011 -0.295,1.516 -0.887,1.516c-2.475,0 -5.413,-0.108 -8.812,-0.325c-3.252,-0.216 -6.005,-0.325 -8.259,-0.325c-2.254,0 -5.006,0.109 -8.258,0.325c-3.436,0.217 -6.411,0.325 -8.923,0.325c-0.592,0 -0.887,-0.505 -0.887,-1.516c0,-0.903 0.295,-1.391 0.887,-1.463c4.471,-0.505 7.51,-1.318 9.117,-2.437c1.607,-1.12 2.411,-3.359 2.411,-6.717l0,-50.971c0,-2.528 -0.323,-4.306 -0.97,-5.335c-0.647,-1.03 -1.783,-1.842 -3.409,-2.438c-1.625,-0.596 -4.009,-1.074 -7.149,-1.435c-0.592,0 -0.887,-0.506 -0.887,-1.517c0,-1.011 0.295,-1.517 0.887,-1.517c2.512,0 5.487,0.109 8.923,0.325c3.252,0.217 6.004,0.325 8.258,0.325c2.254,0 5.007,-0.108 8.259,-0.325c3.399,-0.216 6.337,-0.325 8.812,-0.325c0.592,0 0.887,0.506 0.887,1.517c0,1.011 -0.295,1.517 -0.887,1.517c-3.103,0.361 -5.468,0.839 -7.094,1.435c-1.626,0.596 -2.753,1.399 -3.381,2.411c-0.628,1.011 -0.942,2.798 -0.942,5.362l0,50.971c0,2.492 0.314,4.252 0.942,5.281c0.628,1.029 1.746,1.842 3.353,2.438c1.608,0.595 3.963,1.074 7.067,1.435c0.628,0.072 0.942,0.56 0.942,1.463Z" style="fill:#333;fill-rule:nonzero;"/><path d="M1126.55,186.041c0,6.356 -2.503,11.691 -7.51,16.007c-5.007,4.315 -11.205,6.473 -18.595,6.473c-4.434,0 -8.794,-0.181 -13.081,-0.542l0,19.175c0,2.528 0.324,4.297 0.97,5.308c0.647,1.011 1.774,1.815 3.381,2.411c1.608,0.595 3.963,1.074 7.067,1.435c0.591,0.072 0.887,0.56 0.887,1.463c0,1.011 -0.296,1.516 -0.887,1.516c-2.476,0 -5.413,-0.108 -8.813,-0.325c-3.251,-0.216 -6.004,-0.325 -8.258,-0.325c-2.254,0 -5.025,0.109 -8.314,0.325c-3.436,0.217 -6.392,0.325 -8.868,0.325c-0.591,0 -0.887,-0.505 -0.887,-1.516c0,-0.903 0.296,-1.391 0.887,-1.463c4.471,-0.505 7.51,-1.318 9.118,-2.437c1.607,-1.12 2.411,-3.359 2.411,-6.717l0,-50.971c0,-2.528 -0.324,-4.306 -0.97,-5.335c-0.647,-1.03 -1.783,-1.842 -3.409,-2.438c-1.626,-0.596 -4.009,-1.074 -7.15,-1.435c-0.591,0 -0.887,-0.506 -0.887,-1.517c0,-1.011 0.296,-1.517 0.887,-1.517c2.476,0 5.432,0.109 8.868,0.325c3.289,0.217 6.06,0.325 8.314,0.325c2.254,0 5.007,-0.108 8.258,-0.325c3.4,-0.216 6.337,-0.325 8.813,-0.325c9.09,0 15.99,1.878 20.701,5.634c4.712,3.755 7.067,9.244 7.067,16.466Zm-12.304,0c0,-5.777 -1.451,-10.291 -4.351,-13.541c-2.901,-3.25 -6.753,-4.875 -11.556,-4.875c-2.883,0 -5.109,0.216 -6.679,0.65c-1.571,0.433 -2.679,1.137 -3.326,2.112c-0.646,0.975 -0.97,2.907 -0.97,5.796l0,24.863c0,1.552 0.499,2.591 1.497,3.114c0.998,0.524 3.159,0.786 6.485,0.786c6.023,0 10.678,-1.68 13.967,-5.038c3.288,-3.358 4.933,-7.98 4.933,-13.867Z" style="fill:#333;fill-rule:nonzero;"/><path d="M1195.94,186.041c0,6.356 -2.504,11.691 -7.51,16.007c-5.007,4.315 -11.206,6.473 -18.596,6.473c-4.434,0 -8.794,-0.181 -13.08,-0.542l0,19.175c0,2.528 0.323,4.297 0.97,5.308c0.647,1.011 1.774,1.815 3.381,2.411c1.607,0.595 3.963,1.074 7.067,1.435c0.591,0.072 0.886,0.56 0.886,1.463c0,1.011 -0.295,1.516 -0.886,1.516c-2.476,0 -5.414,-0.108 -8.813,-0.325c-3.252,-0.216 -6.004,-0.325 -8.258,-0.325c-2.254,0 -5.026,0.109 -8.314,0.325c-3.437,0.217 -6.393,0.325 -8.868,0.325c-0.591,0 -0.887,-0.505 -0.887,-1.516c0,-0.903 0.296,-1.391 0.887,-1.463c4.471,-0.505 7.51,-1.318 9.117,-2.437c1.608,-1.12 2.411,-3.359 2.411,-6.717l0,-50.971c0,-2.528 -0.323,-4.306 -0.97,-5.335c-0.646,-1.03 -1.783,-1.842 -3.408,-2.438c-1.626,-0.596 -4.01,-1.074 -7.15,-1.435c-0.591,0 -0.887,-0.506 -0.887,-1.517c0,-1.011 0.296,-1.517 0.887,-1.517c2.475,0 5.431,0.109 8.868,0.325c3.288,0.217 6.06,0.325 8.314,0.325c2.254,0 5.006,-0.108 8.258,-0.325c3.399,-0.216 6.337,-0.325 8.813,-0.325c9.089,0 15.99,1.878 20.701,5.634c4.711,3.755 7.067,9.244 7.067,16.466Zm-12.305,0c0,-5.777 -1.45,-10.291 -4.351,-13.541c-2.9,-3.25 -6.752,-4.875 -11.556,-4.875c-2.882,0 -5.108,0.216 -6.679,0.65c-1.57,0.433 -2.678,1.137 -3.325,2.112c-0.647,0.975 -0.97,2.907 -0.97,5.796l0,24.863c0,1.552 0.499,2.591 1.496,3.114c0.998,0.524 3.16,0.786 6.485,0.786c6.023,0 10.679,-1.68 13.967,-5.038c3.289,-3.358 4.933,-7.98 4.933,-13.867Z" style="fill:#333;fill-rule:nonzero;"/><path d="M1241.78,237.771c0,1.011 -0.296,1.516 -0.887,1.516c-2.476,0 -5.413,-0.108 -8.813,-0.325c-3.251,-0.216 -6.004,-0.325 -8.258,-0.325c-2.254,0 -5.007,0.109 -8.259,0.325c-3.436,0.217 -6.411,0.325 -8.923,0.325c-0.591,0 -0.887,-0.505 -0.887,-1.516c0,-0.903 0.296,-1.391 0.887,-1.463c4.471,-0.505 7.51,-1.318 9.117,-2.437c1.608,-1.12 2.411,-3.359 2.411,-6.717l0,-50.971c0,-2.528 -0.323,-4.306 -0.97,-5.335c-0.646,-1.03 -1.782,-1.842 -3.408,-2.438c-1.626,-0.596 -4.009,-1.074 -7.15,-1.435c-0.591,0 -0.887,-0.506 -0.887,-1.517c0,-1.011 0.296,-1.517 0.887,-1.517c2.512,0 5.487,0.109 8.923,0.325c3.252,0.217 6.005,0.325 8.259,0.325c2.254,0 5.007,-0.108 8.258,-0.325c3.4,-0.216 6.337,-0.325 8.813,-0.325c0.591,0 0.887,0.506 0.887,1.517c0,1.011 -0.296,1.517 -0.887,1.517c-3.104,0.361 -5.469,0.839 -7.095,1.435c-1.625,0.596 -2.752,1.399 -3.381,2.411c-0.628,1.011 -0.942,2.798 -0.942,5.362l0,50.971c0,2.492 0.314,4.252 0.942,5.281c0.629,1.029 1.746,1.842 3.354,2.438c1.607,0.595 3.963,1.074 7.066,1.435c0.628,0.072 0.943,0.56 0.943,1.463Z" style="fill:#333;fill-rule:nonzero;"/></g></g></g></svg>