<?xml version="1.0" encoding="UTF-8" standalone="no"?><!DOCTYPE svg PUBLIC "-//W3C//DTD SVG 1.1//EN" "http://www.w3.org/Graphics/SVG/1.1/DTD/svg11.dtd"><svg width="100%" height="100%" viewBox="0 0 568 574" version="1.1" xmlns="http://www.w3.org/2000/svg" xmlns:xlink="http://www.w3.org/1999/xlink" xml:space="preserve" xmlns:serif="http://www.serif.com/" style="fill-rule:evenodd;clip-rule:evenodd;stroke-linejoin:round;stroke-miterlimit:1.41421;"><rect id="Artboard3" x="-340" y="-106" width="1280" height="800" style="fill:none;"/><clipPath id="_clip1"><rect id="Artboard31" serif:id="Artboard3" x="-340" y="-106" width="1280" height="800"/></clipPath><g clip-path="url(#_clip1)"><circle cx="281.5" cy="284.125" r="278.5" style="fill:#ffcc80;"/><g><path d="M309.313,287.869c34.489,-27.644 91.228,-48.155 124.604,-40.129c10.013,26.753 -14.463,72.232 -50.064,99.877c-34.489,27.644 -68.977,30.32 -103.466,22.294c-8.9,-25.861 -5.562,-53.506 28.926,-82.042Z" style="fill:#239b02;fill-rule:nonzero;"/><path d="M281.5,370.803c-10.013,-27.645 -6.675,-55.289 27.813,-82.934c34.489,-27.644 91.228,-48.155 124.604,-40.129" style="fill:#34b515;fill-rule:nonzero;"/><path d="M253.687,287.869c-34.489,-27.644 -91.228,-48.155 -124.604,-40.129c-10.013,26.753 14.463,72.232 50.064,99.877c34.489,27.644 68.977,30.32 103.466,22.294c8.9,-25.861 5.562,-53.506 -28.926,-82.042Z" style="fill:#239b02;fill-rule:nonzero;"/><path d="M281.5,370.803c10.013,-27.645 6.675,-55.289 -27.813,-82.934c-34.489,-27.644 -91.228,-48.155 -124.604,-40.129" style="fill:#34b515;fill-rule:nonzero;"/><rect x="270.375" y="236.147" width="22.251" height="160.516" style="fill:#683100;"/><path d="M126.858,387.746c-1.113,0 -1.113,11.593 -1.113,17.835c0,82.042 70.09,147.14 155.755,147.14c85.665,0 155.755,-65.098 155.755,-147.14c0,-7.134 -1.113,-18.727 -1.113,-18.727l-309.284,0l0,0.892Z" style="fill:#894400;fill-rule:nonzero;"/><path d="M281.5,554.505c85.665,0 155.755,-65.99 155.755,-147.14c0,-7.134 -1.113,-18.727 -2.225,-18.727l-186.906,0" style="fill:#683100;fill-rule:nonzero;"/><g><path d="M257.553,26.423l-72.059,27.416l28.835,75.792l72.06,-27.416l-28.836,-75.792Z" style="fill:#fff;"/><path d="M284.026,96.87l-26.76,-70.337l-71.772,27.306l26.76,70.337c-28.525,26.956 -39.861,69.72 -25.006,108.765c19.77,51.963 77.632,77.931 129.595,58.161c51.963,-19.77 77.931,-77.632 58.161,-129.595c-14.964,-39.331 -51.462,-63.568 -90.978,-64.637Z" style="fill:#fff;fill-rule:nonzero;"/><path d="M257.553,26.423l-72.059,27.416l8.301,21.819l72.059,-27.416l-8.301,-21.819Z" style="fill:#e6e9ee;"/><path d="M364.669,165.439c17.476,45.935 -5.537,97.743 -51.758,115.328c-46.222,17.585 -98.139,-5.715 -115.615,-51.649c-5.898,-15.503 -7.162,-31.783 -4.682,-46.859c18.211,-10.872 43.407,-19.8 78.494,-20.004c36.058,-0.244 60.707,-10.608 77.58,-23.272c6.831,7.59 12.158,16.408 15.981,26.456Z" style="fill:#54c0eb;fill-rule:nonzero;"/><path d="M290.522,184.776c6.179,-2.351 13.105,0.757 15.456,6.936c2.351,6.18 -0.757,13.106 -6.937,15.457c-6.179,2.351 -13.105,-0.757 -15.456,-6.937c-2.351,-6.18 0.757,-13.105 6.937,-15.456Z" style="fill:#fff;"/><path d="M253.167,86.591c6.179,-2.351 13.105,0.757 15.456,6.937c2.351,6.179 -0.757,13.105 -6.937,15.456c-6.179,2.351 -13.105,-0.757 -15.456,-6.937c-2.351,-6.179 0.757,-13.105 6.937,-15.456Z" style="fill:#54c0eb;"/><path d="M238.307,121.823c4.912,-1.869 10.417,0.601 12.286,5.513c1.869,4.912 -0.602,10.417 -5.514,12.286c-4.912,1.869 -10.417,-0.602 -12.286,-5.514c-1.868,-4.912 0.602,-10.417 5.514,-12.285Z" style="fill:#54c0eb;"/><path d="M267.299,215.302c8.24,-3.135 17.474,1.009 20.609,9.248c3.134,8.24 -1.01,17.474 -9.249,20.609c-8.24,3.135 -17.474,-1.01 -20.609,-9.249c-3.134,-8.239 1.01,-17.474 9.249,-20.608Z" style="fill:#fff;"/><path d="M240.902,190.837c6.179,-2.351 13.105,0.757 15.456,6.937c2.351,6.179 -0.757,13.105 -6.937,15.456c-6.179,2.351 -13.105,-0.757 -15.456,-6.937c-2.351,-6.179 0.757,-13.105 6.937,-15.456Z" style="fill:#fff;"/><path d="M263.645,37.252l-75.792,28.835c-9.474,3.605 -19.778,-1.02 -23.383,-10.494c-3.604,-9.474 1.02,-19.778 10.494,-23.382l75.792,-28.836c9.474,-3.604 19.778,1.02 23.383,10.494c3.495,9.187 -1.02,19.778 -10.494,23.383Z" style="fill:#fff;fill-rule:nonzero;"/></g><rect x="114.62" y="360.993" width="333.76" height="35.67" style="fill:#c67812;"/><rect x="181.372" y="530.427" width="200.256" height="35.67" style="fill:#683100;"/></g></g></svg>